<?xml version="1.0" encoding="UTF-8"?>
<svg width="137px" height="48px" viewBox="0 0 137 48" version="1.1" xmlns="http://www.w3.org/2000/svg" xmlns:xlink="http://www.w3.org/1999/xlink">
    <title>mdpi/zen logo</title>
    <g id="design" stroke="none" stroke-width="1" fill="none" fill-rule="evenodd">
        <g id="web-nav" transform="translate(-120.000000, -41.000000)">
            <g id="Group" transform="translate(120.000000, 41.000000)">
                <g transform="translate(69.000000, 3.500000)" id="mastercard-logo">
                    <polygon id="Fill-5" fill="#EA5C0F" points="24.811334 37.2666651 43.2022356 37.2666651 43.2022356 4.4597814 24.811334 4.4597814"></polygon>
                    <path d="M25.9786942,20.8635814 C25.9786942,14.2080465 29.1172603,8.28116279 34.0063256,4.4607907 C30.4312007,1.66697674 25.9196555,4.62678991e-15 21.0168145,4.62678991e-15 C9.40946632,4.62678991e-15 0,9.34093023 0,20.8635814 C0,32.3865581 9.40946632,41.7281395 21.0168145,41.7281395 C25.9196555,41.7281395 30.4312007,40.0611628 34.0063256,37.2666977 C29.1172603,33.446 25.9786942,27.5191163 25.9786942,20.8635814" id="Fill-7" fill="#DD0C17"></path>
                    <path d="M68.0130776,20.8635814 C68.0130776,32.3865581 58.6036112,41.7281395 46.9956071,41.7281395 C42.0924381,41.7281395 37.5822049,40.0611628 34.006752,37.2666977 C38.8948333,33.446 42.0347113,27.5191163 42.0347113,20.8635814 C42.0347113,14.2080465 38.8948333,8.28116279 34.006752,4.4607907 C37.5822049,1.66697674 42.0924381,4.62678991e-15 46.9956071,4.62678991e-15 C58.6036112,4.62678991e-15 68.0130776,9.34093023 68.0130776,20.8635814" id="Fill-8" fill="#F79E1B"></path>
                    <path d="M67.3567633,33.9823721 L67.3567633,32.9823721 L67.1438958,32.9823721 L66.898885,33.6700731 L66.6535461,32.9823721 L66.4406786,32.9823721 L66.4406786,33.9823721 L66.5908994,33.9823721 L66.5908994,33.2279509 L66.8204946,33.8782724 L66.9766193,33.8782724 L67.2065425,33.2267451 L67.2065425,33.9823721 L67.3567633,33.9823721 Z M66.0080557,33.9823721 L66.0080557,33.1527901 L66.280618,33.1527901 L66.280618,32.9843817 L65.5859285,32.9843817 L65.5859285,33.1527901 L65.8584908,33.1527901 L65.8584908,33.9823721 L66.0080557,33.9823721 Z" id="Fill-9" fill="#F69F00"></path>
                </g>
                <g fill="#222222" id="Group-23" transform="translate(0.000000, 0.571429)">
                    <path d="M44.2992282,13.8203985 C42.4422206,10.9691985 38.7391427,9.951339 35.6774629,11.4497174 C32.4066712,13.1037714 31.1004378,17.0862147 32.7603125,20.3450255 C33.7058734,22.2014579 35.4730384,23.5062795 37.5305643,23.8674471 C37.2808279,31.7223228 30.6874222,37.8883768 22.8036683,37.6395552 C15.1462136,37.397739 9.04420789,31.1790147 8.97467752,23.5459768 C8.96087561,17.6650687 12.6319227,12.4006363 18.1683106,10.3615444 C19.2323596,9.97806332 19.845633,8.86757683 19.6013653,7.76694981 L19.5852197,7.69663629 C19.3133481,6.4927444 20.0727134,5.29689575 21.2810314,5.02602008 C21.3797281,5.00422548 21.4799872,4.98865792 21.5807672,4.98009575 C22.1364893,4.9292417 22.6950759,4.90407413 23.2567875,4.90355521 C23.9515704,4.90355521 24.6458324,4.94143629 25.336709,5.016939 C26.5851306,5.15315521 27.7075122,4.25490656 27.8439688,3.01131737 C27.8483958,2.97032278 27.8517812,2.92932819 27.8541249,2.88833359 C27.8877182,1.65486332 26.9491885,0.609760618 25.7150896,0.506236293 C24.8984333,0.420614672 24.0778708,0.377803861 23.2567875,0.377803861 C10.4124197,0.377803861 5.20826709e-05,10.7522903 5.20826709e-05,23.5498687 C5.20826709e-05,36.3471876 10.4126801,46.7214147 23.2570479,46.7214147 C36.1014158,46.7214147 46.5137834,36.3469282 46.5137834,23.5498687 C46.5137834,21.2842687 46.056758,16.4002039 44.2992282,13.8203985" id="Fill-7"></path>
                    <path d="M32.0287853,2.13686116 C33.3594976,2.13686116 34.4381297,3.2118017 34.4381297,4.53738008 C34.4381297,5.86295846 33.3594976,6.937899 32.0287853,6.937899 C30.6983335,6.937899 29.6197014,5.86295846 29.6197014,4.53738008 C29.6197014,3.2118017 30.6983335,2.13686116 32.0287853,2.13686116" id="Fill-9"></path>
                </g>
            </g>
        </g>
    </g>
</svg>