<svg xmlns="http://www.w3.org/2000/svg" width="192" height="70" viewBox="0 0 192 70">
    <g fill="none" fill-rule="evenodd">
        <g fill="#222">
            <g>
                <g>
                    <path d="M99.182 41.47c-.262-2.428-3.539-4.629-6.112-4.176-2.76.483-5.136 3.514-4.579 5.936l10.691-1.76m-9.815 7.555c.36 1.542 1.216 2.526 2.52 3.137 1.202.564 2.479.65 3.783.565 2.143-.14 4.046-.924 5.795-2.138.812-.563 1.601-1.172 2.459-1.659 1.931-1.096 4.26-.163 4.985 1.94.355 1.033.268 2.036-.188 3.016-.522 1.123-1.352 1.987-2.306 2.742-1.778 1.407-3.8 2.347-5.943 3.035-2.413.774-4.872 1.232-7.421 1.023-4.283-.35-7.777-2.213-10.222-5.744-3.422-4.944-4.192-10.33-1.916-15.962 2.43-6.01 8.413-9.568 14.85-8.938 3.747.367 6.763 2.156 9.096 5.083 1.784 2.24 2.852 4.798 3.174 7.657.024.213.033.43.03.644-.023 1.284-.615 2.207-1.833 2.606-.873.286-1.784.475-2.692.63-4.066.692-8.137 1.356-12.206 2.032-.63.104-1.26.212-1.965.33M58.479 53.035c0-.15.008-.301-.001-.452-.131-2.14-.708-4.113-2.173-5.74-2.371-2.635-6.07-1.92-7.75-.23-1.085 1.093-1.628 2.425-1.767 3.922-.243 2.61.299 5.03 2.028 7.061 2.509 2.95 7.192 2.342 8.917-1.124.537-1.083.767-2.233.746-3.437m-20.234-.55c-.041-4.462 1.034-8.116 3.818-11.15 2.05-2.231 4.615-3.557 7.567-4.13 3.915-.76 7.568-.132 10.866 2.188 2.07 1.455 3.618 3.367 4.684 5.654 1.892 4.053 2.427 8.277 1.108 12.58-1.756 5.732-5.73 9.026-11.623 9.882-4.64.673-8.675-.685-11.954-4.092-2.212-2.3-3.5-5.089-4.098-8.204-.198-1.031-.284-2.087-.368-2.729M54.061 17.88c-.465-2.412-3.37-4.157-5.764-3.557-2.2.55-4.124 3.247-3.572 5.106l9.336-1.549m-8.615 6.668c.149.387.24.762.423 1.083.717 1.262 1.875 1.86 3.26 2.054 2.05.287 3.991-.089 5.779-1.12.966-.558 1.866-1.23 2.798-1.847.506-.333 1.023-.632 1.652-.676 2.236-.155 3.853 1.843 3.274 4.057-.224.859-.708 1.564-1.308 2.196-.961 1.014-2.109 1.768-3.347 2.387-2.495 1.246-5.133 2.046-7.922 2.07-5.36.045-9.272-2.41-11.601-7.24-1.75-3.63-2.06-7.434-.612-11.234 1.868-4.904 5.47-7.75 10.68-8.367 5.66-.67 10.106 2.707 12.125 7.09.663 1.439 1.136 2.935 1.157 4.537.015 1.219-.466 1.98-1.618 2.364-.85.282-1.748.437-2.635.588-3.855.653-7.714 1.284-11.571 1.926-.145.024-.286.07-.534.132M18.342 27.833c-.072-1.606-.443-3.294-1.535-4.742-1.123-1.489-2.607-2.207-4.488-1.943-1.981.28-3.27 1.417-3.917 3.292-.514 1.492-.457 3.007-.083 4.52.288 1.165.782 2.23 1.592 3.13 2.328 2.594 6.531 1.894 7.891-1.318.374-.883.53-1.813.54-2.939m7.422-.537c-.045 3.654-.806 6.436-2.665 8.849-1.99 2.584-4.651 4.039-7.843 4.526-3.859.589-7.295-.35-10.19-3.026-2.157-1.993-3.437-4.497-4.054-7.347-.664-3.062-.577-6.088.683-8.998 1.757-4.055 4.882-6.421 9.192-7.177 3.736-.655 7.14.162 10.06 2.653 2.27 1.938 3.658 4.439 4.324 7.325.29 1.252.397 2.547.493 3.195M75.004 63.534c-2.071-.008-3.759-1.47-4.129-3.647-.671-3.948-1.306-7.902-1.958-11.854l-2.532-15.295c-.313-1.89-.626-3.782-.937-5.673-.198-1.203-.125-2.364.533-3.433.89-1.448 2.562-2.206 4.338-1.9 1.805.308 2.905 1.454 3.34 3.184.304 1.208.447 2.457.652 3.688.932 5.609 1.863 11.217 2.79 16.828.727 4.398 1.478 8.792 2.16 13.198.42 2.707-1.544 4.915-4.257 4.904M24.383 4.35C24.396 2.304 25.733.8 27.739.593c1.94-.2 3.64 1.076 3.994 3.066.456 2.567.863 5.142 1.287 7.713.67 4.059 1.337 8.12 2.007 12.178.492 2.976.987 5.95 1.478 8.926.113.687.138 1.374-.048 2.052-.402 1.473-1.577 2.47-3.145 2.676-1.447.19-2.873-.555-3.619-1.873-.37-.655-.483-1.376-.602-2.098-1.053-6.397-2.101-12.795-3.154-19.19-.49-2.976-.987-5.95-1.477-8.925-.042-.254-.052-.514-.077-.77M117.168 45.655c-2.695.005-4.386-1.457-4.755-3.659-.878-5.246-1.736-10.494-2.604-15.741-.361-2.189-.722-4.377-1.086-6.565-.442-2.656 1.105-4.787 3.731-5.131 2.161-.284 4.134 1.175 4.573 3.45.336 1.733.596 3.481.885 5.224.67 4.036 1.336 8.074 2.004 12.11.279 1.679.564 3.356.835 5.036.247 1.527-.01 2.922-1.132 4.064-.831.846-1.862 1.203-2.451 1.212M113.864 53.15c.005-2.624 2.149-4.76 4.767-4.747 2.579.012 4.717 2.178 4.693 4.756-.023 2.585-2.201 4.755-4.741 4.726-2.604-.031-4.724-2.158-4.719-4.735" transform="translate(-1088 -1597) translate(1074 1592) translate(48.036 5.875)"/>
                </g>
            </g>
        </g>
    </g>
</svg>
