<svg xmlns="http://www.w3.org/2000/svg" width="192" height="70" viewBox="0 0 192 70">
    <g fill="none" fill-rule="evenodd">
        <g fill="#222">
            <g>
                <g>
                    <path d="M35.134 17.938h16.027V4.668H35.134v13.268zM43.064.645c3.007 0 6.015-.039 9.02.025.81.018 1.652.248 2.408.554 1.003.406 1.445 1.348 1.62 2.357.15.874.217 1.771.223 2.659.025 3.513.02 7.026.001 10.537-.003.705-.077 1.415-.19 2.11-.337 2.047-1.398 3.004-3.48 3.166-.65.05-1.305.073-1.958.074-5.072.006-10.145.006-15.217 0-.627 0-1.26 0-1.88-.075-2.541-.314-3.368-1.314-3.597-3.75-.155-1.639-.057-3.301-.06-4.953-.004-2.62-.01-5.242.012-7.864.006-.649.081-1.305.193-1.946.328-1.892 1.503-2.778 3.729-2.86C36.943.563 40.005.65 43.065.65V.645zM133.89 17.916h16.036V4.69h-16.037v13.225zm7.977 4.134c-3.162 0-6.325.052-9.486-.02-2.006-.045-3.206-1.132-3.498-2.95-.107-.67-.184-1.355-.186-2.032-.015-3.853-.01-7.706.007-11.558.002-.6.058-1.209.17-1.798.36-1.869 1.361-2.953 3.79-3.012 4.31-.106 8.625-.03 12.938-.03 1.726 0 3.452-.031 5.176.014.665.018 1.345.146 1.984.34 1.44.437 2.003 1.593 2.188 2.97.09.671.093 1.358.093 2.039-.007 4.088.014 8.176-.058 12.263-.042 2.41-1.297 3.694-3.71 3.757-3.135.083-6.272.021-9.408.021v-.004zM94 22.077h-4.607V7.454l-8.968 12.052h-1.202l-9.035-12.13V22.07h-4.004V.697h4.095l9.908 12.777L89.907.672H94v21.405zM169.901 9.891c.383.019.638.041.892.042 2.506.005 5.011.01 7.516.005 1.174-.003 2.348-.001 3.52-.052.763-.032 1.164-.386 1.274-1.133.088-.59.075-1.198.078-1.798.007-2.154-.333-2.506-2.486-2.514-3.314-.011-6.628-.004-9.942 0-.252 0-.504.032-.783.05-.028.268-.065.47-.066.674-.005 1.54-.003 3.08-.003 4.726m-.024 4.003v8.193h-4.914V.711c.175-.02.371-.059.568-.06C171.7.65 177.866.646 184.033.65c1.998.001 3.324.905 4.032 2.745.081.21.064.463.064.697.004 1.965-.034 3.931.013 5.895.044 1.8-1.407 3.425-3.005 3.636-.749.1-1.504.21-2.257.215-4.025.019-8.049.007-12.073.008-.256.001-.511.027-.93.05M123.622.716L123.622 4.602 113.901 4.602 113.901 22.077 108.766 22.077 108.766 4.61 99.106 4.61 99.106.716zM24.917.692L24.917 4.575 15.181 4.575 15.181 22.054 10.074 22.054 10.074 4.64.366 4.64.366.692z" transform="translate(-1088 -1736) translate(1074 1731) translate(15.745 28.625)"/>
                </g>
            </g>
        </g>
    </g>
</svg>
