<svg xmlns="http://www.w3.org/2000/svg" width="193" height="70" viewBox="0 0 193 70">
    <g fill="none" fill-rule="evenodd">
        <g fill="#222">
            <g>
                <g>
                    <g>
                        <path d="M39.394 23.238H27.543c-.396 0-.695-.302-.695-.701v-1.459c-.008-.355.105-.516.323-.788l9.433-11.055H27.36c-.394 0-.693-.303-.694-.7V7.502c.001-.4.3-.699.694-.701h11.972c.396.002.695.301.695.701V8.99c.006.268-.085.496-.299.737l-9.457 11.076h9.122c.396.001.694.303.695.701v1.033c0 .399-.3.701-.695.701zm23.361.304h.003c.848-.017 1.475-.187 1.721-.464.087-.1.13-.213.118-.324-.006-.093-.006-.093-.239-1.193l-.005-.027c-.053-.287-.254-.418-.423-.418l-.022.001s-.214-.01-.424-.01h-.003c-.605-.018-1.105-.108-1.116-1V1.436c0-.311-.186-.628-.544-.638l-.105.001-1.655.426c-.282.03-.575.232-.563.607v18.336c.003 2.173 1.16 3.37 3.257 3.375zm33.454-.304H94.73c-.395 0-.694-.302-.696-.701V11.298c-.025-1.9-.588-2.43-2.62-2.46-2.3 0-4.624.582-5.39.793v12.906c-.002.406-.28.701-.665.701h-1.508c-.395 0-.693-.302-.694-.701V9.932c-.022-1.167.087-1.974 1.733-2.51 1.577-.55 4.593-1.015 6.587-1.016 3.796.005 5.42 1.387 5.424 4.618v11.513c0 .399-.3.701-.693.701zM111.048 9.3c-.55-.141-2.09-.49-3.824-.49-3.182.029-4.518.9-4.55 6.225.036 5.847 1.762 6.163 4.58 6.193v.124-.124c1.753 0 3.258-.368 3.792-.516l.002-11.412zm.776 13.719l-.175.045c-.94.24-2.227.569-4.485.569h-.003c-6.217-.009-7.439-3.172-7.445-8.629.009-6.26 1.977-8.59 7.262-8.598 1.866 0 3.152.243 4.074.468l-.006-5.041c-.007-.223.092-.512.61-.612l1.652-.424h.09c.381.01.514.35.515.638v18.947c.025 1.194-.115 2.22-2.089 2.637zm12.055-1.82c-4.073-.018-4.277-2.126-4.306-6.164.029-4.059.232-6.177 4.306-6.196 4.076.02 4.28 2.137 4.308 6.193-.029 4.04-.232 6.149-4.308 6.166zm0-14.793c-6.717.01-7.287 4.457-7.293 8.629.006 4.154.576 8.59 7.293 8.598h.002c6.711-.009 7.284-4.43 7.294-8.598-.008-4.361-.577-8.62-7.296-8.63zm-46.56 8.716c-.674.008-3.937.06-5.239.341l-.1.023c-1.46.329-2.615.587-2.628 2.768.003 2.742 2.085 2.988 4.217 3.006l.002.123v-.123c1.336 0 2.595-.192 3.747-.567v-5.571zm2.881-4.006v8.717c.03 2.17-.524 2.86-2.688 3.367-.949.198-2.401.431-3.974.433-2.32-.006-7.142-.015-7.144-5.258-.016-4.129 2.446-4.847 5.419-5.307 1.949-.315 3.93-.362 4.937-.362.272 0 .45.002.553.005v-1.474c-.01-.984-.014-1.58-.929-1.928-.56-.238-1.401-.349-2.648-.349-2.057 0-3.9.466-5.118.774l-.466.11c-.05.013-.104.025-.174.03-.216 0-.45-.13-.537-.415l-.007-.026-.276-1.404v-.071c.004-.332.24-.526.462-.596.984-.37 3.582-.955 6.38-.956 2.046.001 3.522.269 4.516.819 1.7.906 1.697 2.561 1.694 3.89zm-26.996 9.577c-1.152.375-2.412.567-3.748.567v.123l-.001-.123c-2.132-.018-4.214-.264-4.217-3.006.014-2.18 1.168-2.44 2.629-2.768l.102-.023c1.299-.281 4.562-.333 5.235-.341v5.571zm1.187-13.468c-.993-.55-2.469-.818-4.514-.82-2.798.002-5.396.587-6.379.957-.223.07-.46.264-.464.596l.001.071.275 1.404.007.026c.086.286.323.414.537.414h.001c.069-.004.124-.016.174-.028l.465-.11c1.22-.31 3.06-.775 5.118-.775 1.248 0 2.087.111 2.65.35.913.348.917.943.929 1.927v1.474c-.107-.003-.282-.005-.553-.005-1.008 0-2.99.047-4.938.362-2.974.46-5.434 1.178-5.42 5.307.003 5.243 4.826 5.252 7.144 5.258 1.574-.002 3.026-.235 3.974-.433 2.164-.507 2.716-1.198 2.687-3.367v-8.717c.003-1.33.008-2.985-1.694-3.891z" transform="translate(-1083 -2765) translate(148 2440) translate(921 320) translate(42.95 12)"/>
                        <g>
                            <path d="M88.185 14.095c-.03-1.13-.093-2.226-.372-3.324-.499-1.945-1.65-2.539-3.982-2.539-2.393 0-3.513.628-4.011 2.54-.28 1.066-.311 2.224-.341 3.354l8.706-.03zm2.954.219v1.536c0 .22-.216.47-.435.47H79.509c0 1.662.341 2.601 1.056 3.385.873 1.005 2.302 1.35 4.355 1.35 1.928 0 3.172-.41 4.51-.786.063-.03.125-.03.187-.03.156 0 .248.094.34.313l.343 1.285c.032.032.032.095.032.126 0 .188-.125.315-.342.377-1.215.5-3.266.94-5.412.94-6.095 0-8.055-2.759-8.055-8.621 0-5.424 1.214-8.653 7.34-8.653 3.234 0 5.13.973 6.187 2.665.873 1.443 1.089 3.386 1.089 5.643zM70.58 20.52s-1.742.565-3.886.565c-3.017 0-4.665-.628-4.665-6.427 0-5.392 1.4-6.427 4.633-6.427 2.085 0 3.918.501 3.918.501v11.788zm2.863 3.424V9.204c0-1.16-.093-2.068-2.022-2.54-1.12-.283-2.769-.658-4.976-.658-5.598 0-7.4 2.477-7.4 8.684 0 5.643 1.305 8.59 7.308 8.59 2.239 0 3.331-.291 4.327-.544l-.11.15v2.419c-.086 1.91-.967 3.401-4.318 3.401-2.48 0-3.935-.702-4.631-2.339-.1-.144-.273-.194-.473-.112l-1.494.599c-.241.097-.304.292-.22.51l-.006.007c.79 2.361 2.833 3.617 6.824 3.617 6.19 0 7.193-3.223 7.193-6.513v-.53h-.002zm-17.48-13.36v11.819c0 .28-.157.468-.466.468H53.57c-.311 0-.499-.188-.499-.468V10.927c0-2.005-.744-2.695-2.765-2.695-2.645 0-5.351.784-5.351.784v13.388c0 .28-.155.468-.466.468H42.56c-.31 0-.498-.188-.498-.468V9.267c0-1.224.188-1.756 1.805-2.288 1.616-.533 4.6-.973 6.593-.973 3.732 0 5.504 1.13 5.504 4.578zM38.49 6.004h-.123l-1.993.472c-.278.03-.433.156-.433.47l.03 10.126c0 2.193-.373 4.013-4.075 4.013-3.11 0-4.074-1.225-4.074-3.95V6.447c0-.22-.091-.44-.34-.44h-.094l-2.022.44c-.25.062-.436.187-.436.47v9.969c0 4.201 1.585 6.396 6.966 6.396 6.19 0 6.935-3.136 6.935-6.428V6.446c0-.251-.094-.44-.341-.44zm-19.37 8.654c0-3.95-.186-6.427-4.415-6.427-4.199 0-4.385 2.477-4.385 6.427 0 3.919.186 6.396 4.385 6.396 4.229 0 4.415-2.477 4.415-6.396zm2.987 0c0 4.732-.778 8.622-7.402 8.622-6.593 0-7.401-3.89-7.401-8.622 0-4.766.808-8.653 7.4-8.653 6.625 0 7.403 3.887 7.403 8.653zM5.548 20.771c-.03 0-.062.031-.122.031-.188.033-.655.126-1.09.126-.622 0-1.369-.188-1.369-1.318V.844c0-.25-.092-.437-.341-.437h-.094L.511.875c-.28.034-.435.16-.435.44v18.422c0 2.352 1.305 3.449 3.388 3.449 1.246 0 2.117-.282 2.365-.407.062 0 .248-.095.248-.345v-.094l-.28-1.285c-.03-.22-.125-.284-.249-.284z" transform="translate(-1083 -2765) translate(148 2440) translate(921 320) translate(42.95 12) translate(27.368 27.876)"/>
                        </g>
                        <path d="M18.374 12.05l-.003.001-.192-.213c-2.794-3.089-8.59-6.825-15.15-6.825-2.055 0-3.115 5.637-3.023 10.864L0 15.876c.11 4.618 1.14 9.044 3.185 9.044 7.84 0 16.77-7.324 16.77-9.949 0-.657-.677-1.924-1.58-2.921" transform="translate(-1083 -2765) translate(148 2440) translate(921 320) translate(42.95 12)"/>
                    </g>
                </g>
            </g>
        </g>
    </g>
</svg>
