<svg xmlns="http://www.w3.org/2000/svg" width="193" height="70" viewBox="0 0 193 70">
    <g fill="none" fill-rule="evenodd">
        <g>
            <g>
                <g>
                    <path fill="#222" d="M74.474 19.71c2.852 0 5.689.012 8.527-.008.682-.006.883-.462.477-1.058-1.006-1.471-2.414-2.261-4.203-2.31-2.214-.06-4.415 1.482-4.8 3.375zm-.136 3.279c1.086 3.637 5.726 4.772 8.392 2.14.31-.305.57-.687 1.002-.825.712-.228 1.357-.079 1.86.492.505.574.544 1.33.026 2.039-1.008 1.37-2.416 2.225-4.025 2.664-3.422.934-6.433.124-8.758-2.552-2.329-2.68-2.731-5.806-1.257-9.009 1.466-3.184 4.121-4.803 7.628-4.879 3.874-.083 7.35 2.722 8.194 6.493.38 1.705-.997 3.416-2.821 3.43-3.093.026-6.187.007-9.28.007h-.96zM148.196 19.71c1.338 0 2.678.013 4.019-.005.711-.011.973-.438.596-1-1.086-1.613-2.618-2.454-4.574-2.363-1.991.094-3.43 1.115-4.374 2.852-.264.484-.012.526.397.522 1.311-.014 2.623-.007 3.936-.007m.892 3.28c-1.616 0-3.232.023-4.845-.012-.604-.012-.707.12-.452.675 1.454 3.144 5.72 3.947 8.226 1.528.456-.441.9-.918 1.599-.87.593.04 1.104.26 1.39.853.323.669.214 1.287-.209 1.842-.85 1.118-2 1.87-3.3 2.33-3.318 1.174-6.357.568-8.88-1.843-2.383-2.277-3.142-5.17-2.225-8.33.953-3.289 3.243-5.312 6.617-5.978 4.193-.828 8.423 1.85 9.566 5.97.57 2.053-.756 3.817-2.89 3.833-1.532.012-3.065.002-4.597.002" transform="translate(-780 -1597) translate(766 1592) translate(16.632 20.75)"/>
                    <path fill="#FEFEFE" d="M19.889.025H6.259C2.922.026.6 2.355.598 5.701v26.944c0 3.436 2.193 5.778 5.637 5.795 9.086.048 18.174.048 27.26 0 3.4-.017 5.61-2.365 5.61-5.732.001-9.037.002-18.073 0-27.109C39.104 2.363 36.762.028 33.52.026 28.975.023 24.433.025 19.889.025" transform="translate(-780 -1597) translate(766 1592) translate(16.632 20.75)"/>
                    <path fill="#222" d="M61.485 17.417c-1.45 0-2.9-.007-4.35.002-1.157.007-1.887.644-1.865 1.603.021.974.73 1.564 1.892 1.566 2.436.002 4.872-.01 7.306.005.991.007 1.177.301.846 1.215-1.21 3.341-4.706 5.42-8.338 4.956-4.35-.553-7.37-4.712-6.614-9.11.734-4.276 4.995-7.123 9.269-6.21 1.489.318 2.726 1.054 3.843 2.062 1.053.952 2.453.54 2.73-.772.166-.788-.306-1.299-.837-1.745-3.324-2.803-7.101-3.612-11.166-2.082-4.093 1.541-6.49 4.614-6.997 8.988-.667 5.77 3.467 11.106 9.15 11.923 5.834.838 11.293-3.008 12.368-8.709.391-2.072-.924-3.671-3.05-3.69-1.395-.013-2.79-.002-4.187-.002M165.668 13.093c-1.902-.048-3.632.497-5.147 1.607-1.476 1.078-2.087 2.593-1.71 4.383.361 1.717 1.441 2.847 3.192 3.239 1.81.405 3.63.77 5.445 1.155.638.134 1.229.32 1.358 1.092.132.793-.337 1.21-.951 1.536-.216.114-.44.22-.67.3-2.21.769-3.994-.008-5.59-1.52-.811-.769-1.736-.814-2.405-.171-.643.619-.63 1.63.033 2.441 2.666 3.273 8.472 3.736 11.613.925 1.313-1.174 1.867-2.615 1.402-4.338-.46-1.708-1.63-2.714-3.357-3.085-1.787-.386-3.576-.77-5.362-1.159-.665-.144-1.196-.486-1.263-1.21-.067-.715.381-1.124 1.005-1.425 2.048-.99 4.542-.55 6.094 1.106.82.875 1.764 1 2.508.331.753-.676.715-1.731-.128-2.599-1.66-1.703-3.682-2.582-6.067-2.608M177.717 19.592c.045 1.217-.105 2.607.242 3.983.841 3.352 3.992 6.097 7.261 6.283 1.022.06 1.727-.442 1.851-1.318.138-.964-.374-1.644-1.4-1.86-.186-.039-.375-.074-.561-.111-2.395-.473-4.176-2.628-4.186-5.07-.005-1.529.02-3.057-.012-4.586-.012-.512.097-.702.658-.682 1.284.046 2.572.02 3.858.013 1.033-.006 1.702-.628 1.71-1.573.008-.944-.653-1.56-1.701-1.567-1.258-.008-2.518-.035-3.775.013-.623.022-.877-.126-.833-.796.06-.87.023-1.746.013-2.62-.014-1.054-.62-1.687-1.585-1.676-.927.01-1.518.634-1.54 1.64-.009.491.015.982-.004 1.473-.023.624.256 1.398-.122 1.825-.353.402-1.133.098-1.722.137-.865.059-1.478.68-1.49 1.535-.013.878.627 1.568 1.508 1.608.328.014.661.038.984-.005.651-.09.93.09.862.812-.074.785-.016 1.58-.016 2.542M113.678 14.777c-.17-.113-.1-.261-.128-.383-.204-.9-.881-1.383-1.8-1.284-.794.082-1.316.687-1.318 1.586-.007 4.527 0 9.055-.006 13.584 0 .71.326 1.198.97 1.462 1.088.443 2.162-.307 2.176-1.555.027-2.1.017-4.201.003-6.301-.005-.635.072-1.254.25-1.855.6-2.019 2.004-3.16 4.012-3.667 1.08-.272 1.537-1.033 1.294-2.008-.219-.873-1.04-1.299-2.064-1.093-1.25.25-2.353.825-3.39 1.514M19.831 27.877c7.75.007 14.036-6.25 13.923-13.857-.017-1.199-.737-1.943-1.94-1.955-1.642-.017-3.285-.02-4.927 0-1.213.016-2.008.784-2.026 1.9-.02 1.12.736 1.937 1.924 2.021.654.046 1.316.06 1.969.006.728-.058.882.154.675.86-1.186 4.046-5.097 7.036-9.349 7.089-5.301.063-9.9-4.146-10.064-9.69-.04-1.383-.867-2.221-2.028-2.19-1.22.036-1.944.927-1.918 2.36.142 7.394 6.334 13.449 13.761 13.456M19.888.025c4.544 0 9.088-.002 13.632.001 3.242.002 5.585 2.337 5.586 5.573.002 9.036.002 18.072 0 27.109 0 3.367-2.21 5.715-5.61 5.733-9.086.047-18.174.047-27.26 0C2.791 38.422.6 36.08.6 32.644V5.701C.6 2.355 2.924.026 6.259.025h13.63" transform="translate(-780 -1597) translate(766 1592) translate(16.632 20.75)"/>
                    <path fill="#222" d="M61.485 17.417c1.396 0 2.792-.01 4.188.002 2.125.019 3.44 1.618 3.049 3.69-1.075 5.7-6.534 9.547-12.368 8.71-5.683-.818-9.817-6.154-9.15-11.924.506-4.374 2.904-7.447 6.997-8.988 4.065-1.53 7.842-.72 11.166 2.082.531.446 1.003.957.837 1.745-.277 1.311-1.677 1.724-2.73.772-1.117-1.008-2.354-1.744-3.843-2.062-4.274-.913-8.535 1.934-9.27 6.21-.755 4.398 2.266 8.557 6.615 9.11 3.632.463 7.127-1.615 8.338-4.956.331-.914.145-1.208-.846-1.215-2.434-.015-4.87-.003-7.306-.005-1.161-.002-1.871-.592-1.892-1.566-.022-.959.708-1.596 1.865-1.603 1.45-.01 2.9-.002 4.35-.002M134.766 21.44c0-2.815-2.288-5.107-5.103-5.11-2.79-.004-5.14 2.313-5.157 5.085-.02 2.916 2.291 5.256 5.162 5.228 2.868-.027 5.101-2.305 5.098-5.202m-10.344 6.714c-.033.105-.068.203-.093.302-.256 1.028-.846 1.484-1.793 1.384-.833-.091-1.368-.746-1.372-1.747-.01-3.246-.003-6.494-.003-9.741 0-2.84-.006-5.678.002-8.516.003-.988.46-1.621 1.242-1.781 1.066-.219 1.916.482 1.93 1.642.022 1.663.005 3.327.005 5.178 2.067-1.556 4.31-2.06 6.705-1.685 2.414.379 4.322 1.64 5.672 3.675 2.094 3.157 1.706 7.544-.873 10.29-2.994 3.188-6.811 3.527-11.422 1M97.872 26.59c2.904.006 5.181-2.218 5.195-5.076.013-2.859-2.258-5.16-5.117-5.184-2.87-.026-5.206 2.309-5.202 5.195.004 2.812 2.28 5.06 5.124 5.066m5.294-11.765c.165-1.123.627-1.658 1.487-1.722.933-.068 1.686.543 1.692 1.48.027 4.616.032 9.228.027 13.842 0 .724-.558 1.306-1.241 1.42-.773.13-1.444-.209-1.743-.905-.102-.242-.151-.506-.224-.76-4.908 2.592-9.08 2.055-11.913-1.532-2.526-3.197-2.365-7.68.41-10.823 2.24-2.538 6.917-4.248 11.505-1M165.668 13.093c2.385.026 4.408.905 6.067 2.608.843.868.88 1.923.128 2.6-.744.669-1.688.543-2.508-.332-1.552-1.655-4.046-2.096-6.094-1.106-.624.3-1.072.71-1.005 1.426.067.723.598 1.065 1.263 1.21 1.786.388 3.575.772 5.362 1.158 1.726.37 2.897 1.377 3.357 3.085.465 1.723-.09 3.164-1.402 4.338-3.141 2.81-8.947 2.348-11.613-.925-.662-.812-.676-1.822-.033-2.441.67-.643 1.594-.598 2.405.171 1.596 1.512 3.38 2.289 5.59 1.52.23-.08.454-.186.67-.3.614-.326 1.083-.743.95-1.536-.128-.771-.719-.958-1.357-1.092-1.815-.384-3.635-.75-5.445-1.155-1.75-.392-2.83-1.522-3.192-3.239-.377-1.79.234-3.305 1.71-4.383 1.515-1.11 3.245-1.655 5.147-1.607M177.717 19.592c0-.961-.058-1.757.016-2.542.068-.722-.211-.902-.862-.812-.323.043-.656.019-.984.005-.881-.04-1.521-.73-1.508-1.608.012-.854.625-1.476 1.49-1.535.589-.04 1.369.265 1.722-.137.378-.427.099-1.201.122-1.825.019-.49-.005-.982.005-1.473.02-1.006.612-1.63 1.54-1.64.964-.01 1.57.622 1.584 1.676.01.874.046 1.75-.013 2.62-.044.67.21.818.833.796 1.257-.048 2.517-.021 3.775-.013 1.048.007 1.709.623 1.7 1.567-.007.945-.676 1.567-1.709 1.573-1.286.007-2.574.033-3.858-.013-.56-.02-.67.17-.658.682.032 1.529.007 3.057.012 4.586.01 2.442 1.79 4.597 4.186 5.07.186.037.375.072.562.11 1.025.217 1.537.897 1.4 1.861-.125.876-.83 1.378-1.852 1.318-3.269-.186-6.42-2.931-7.261-6.283-.347-1.376-.197-2.766-.242-3.983M113.678 14.777c1.036-.69 2.14-1.263 3.39-1.514 1.023-.206 1.844.22 2.063 1.093.243.975-.214 1.736-1.294 2.008-2.008.507-3.413 1.648-4.012 3.667-.178.6-.255 1.22-.25 1.855.014 2.1.024 4.2-.003 6.3-.014 1.25-1.088 2-2.176 1.556-.644-.264-.97-.751-.97-1.462.006-4.529 0-9.057.006-13.584.002-.899.524-1.504 1.318-1.586.919-.1 1.596.384 1.8 1.284.028.122-.042.27.128.383" transform="translate(-780 -1597) translate(766 1592) translate(16.632 20.75)"/>
                    <path fill="#FFF" d="M19.831 27.877c-7.427-.007-13.62-6.062-13.76-13.455-.027-1.434.698-2.325 1.917-2.36 1.16-.032 1.988.806 2.028 2.19.163 5.543 4.763 9.752 10.064 9.689 4.252-.053 8.163-3.043 9.35-7.088.206-.707.052-.92-.676-.86-.653.053-1.315.039-1.969-.007-1.188-.084-1.944-.901-1.924-2.022.018-1.116.813-1.883 2.026-1.899 1.642-.02 3.285-.017 4.927 0 1.203.012 1.923.756 1.94 1.955.113 7.607-6.174 13.864-13.923 13.857" transform="translate(-780 -1597) translate(766 1592) translate(16.632 20.75)"/>
                </g>
            </g>
        </g>
    </g>
</svg>
