<svg xmlns="http://www.w3.org/2000/svg" width="193" height="70" viewBox="0 0 193 70">
    <g fill="none" fill-rule="evenodd">
        <g>
            <g>
                <g>
                    <g>
                        <g>
                            <path fill="#222" d="M157.347 0.778L0.562 0.778 0.562 43.22 117.141 43.22 134.051 55.223 134.051 43.22 157.347 43.22z" transform="translate(-162 -1942) translate(120 886) translate(0 135) translate(28 916) translate(31.545 16.375)"/>
                            <path fill="#FFF" d="M26.792 23.241L16.435 9.911 10.838 9.911 10.838 34.094 17.039 34.094 17.039 20.763 27.395 34.094 32.957 34.094 32.957 9.911 26.792 9.911zM99.591 23.241L89.235 9.911 83.638 9.911 83.638 34.094 89.838 34.094 89.838 20.763 100.195 34.094 105.757 34.094 105.757 9.911 99.591 9.911zM42.508 24.732L53.956 24.732 53.956 19.031 42.508 19.031 42.508 15.68 54.822 15.68 54.822 9.911 36.307 9.911 36.307 34.094 54.995 34.094 54.995 28.29 42.508 28.29z" transform="translate(-162 -1942) translate(120 886) translate(0 135) translate(28 916) translate(31.545 16.375)"/>
                            <g fill="#FFF">
                                <path d="M12.712 19.817c-3.707 0-6.546-2.694-6.546-6.565 0-3.869 2.84-6.564 6.546-6.564 3.706 0 6.546 2.695 6.546 6.564 0 3.87-2.84 6.565-6.546 6.565m0-19.174C5.646.643 0 6.135 0 13.253c0 7.117 5.646 12.61 12.712 12.61s12.713-5.493 12.713-12.61c0-7.118-5.647-12.61-12.713-12.61M52.962 1.161L52.962 25.345 71.649 25.345 71.649 19.541 59.162 19.541 59.162 15.981 70.61 15.981 70.61 10.282 59.162 10.282 59.162 6.93 78.378 6.934 78.378 25.263 84.578 25.263 84.578 6.934 91.725 6.934 91.725 1.161z" transform="translate(-162 -1942) translate(120 886) translate(0 135) translate(28 916) translate(31.545 16.375) translate(56.145 8.75)"/>
                            </g>
                        </g>
                    </g>
                </g>
            </g>
        </g>
    </g>
</svg>
