<svg xmlns="http://www.w3.org/2000/svg" width="192" height="70" viewBox="0 0 192 70">
    <g fill="none" fill-rule="evenodd">
        <g fill="#222">
            <g>
                <g>
                    <path d="M87.223 37.909c.168-3.753 3.34-6.66 7.082-6.49l.101.005c3.326-.204 6.187 2.334 6.39 5.668.017.272.015.545-.005.817H87.223zm7.172-12.37c-8.98 0-12.912 6.038-14.168 11.146-.345 1.377-.518 2.792-.516 4.213-.048 3.364.962 6.658 2.887 9.414 2.916 3.76 7.399 5.961 12.149 5.966 4.848.177 8.087-.647 10.564-2.058.495-.322.73-.923.587-1.495v-3.92c0-.799-.481-1.176-1.174-.694-2.9 1.863-6.339 2.693-9.766 2.354-4.038-.053-7.402-3.118-7.84-7.143h19.953c.45 0 .816-.362.823-.813.351-5.472-1.234-16.97-13.499-16.97zm-48.36 25.373h-8.768c-1.125-.032-2.211-.415-3.11-1.095-.938-.66-1.488-1.744-1.467-2.894 0-1.59 1.068-4.766 6.408-4.766h6.938v8.755zm6.515-13.05c0-4.013-.891-7.062-2.818-9.168-1.924-2.106-5.798-3.154-9.39-3.154-3.604-.014-7.149.932-10.27 2.742-.198.118-.32.333-.316.565l.27 4.425c.074.429.482.716.91.64.141-.024.273-.087.38-.181 4.402-2.718 9.684-3.225 12.372-1.86 1.507.87 2.41 2.506 2.348 4.25v.646h-7.337c-3.157 0-12.829 1.177-12.829 10.085v.095c-.152 2.749 1.012 5.407 3.134 7.154 2.286 1.615 5.05 2.407 7.84 2.248h14.85c.479 0 .868-.39.868-.87V37.826l-.012.035zm73.736 12.533c-3.627 0-6.245-2.66-7.348-5.967-.78-2.289-.78-4.772 0-7.061 1.103-3.307 3.721-5.966 7.348-5.966 8.11 0 8.38 8.296 8.38 9.497 0 1.2-.27 9.497-8.38 9.497zm15.036-9.486c.064-3.366-.948-6.665-2.887-9.414-5.206-6.727-14.865-7.95-21.575-2.73-1.018.792-1.932 1.709-2.723 2.73-3.905 5.666-3.905 13.163 0 18.829 2.869 3.818 7.382 6.034 12.15 5.967 3.077.01 6.09-.9 8.65-2.613v3.719c0 5.048-4.402 5.966-7.22 6.142-1.938.065-3.878-.041-5.798-.317-.774-.118-1.314 0-1.314.835v4.472c.02.423.376.75.797.73h.001c6.538.565 10.94.447 14.25-1.447 2.318-1.375 4.04-3.571 4.824-6.155.585-1.994.866-4.065.833-6.143V40.909h.012zm21.61-13.64V30.8c.066.503-.286.965-.787 1.033-.13.017-.263.006-.388-.032-5.705-1.177-9.214 1.365-9.214 6.65v17.063c0 .48-.39.87-.868.87h-5.048c-.48 0-.868-.39-.868-.87V38.085c-.061-3.334 1.29-6.538 3.72-8.814 2.468-2.419 5.787-3.764 9.238-3.743 1.182.003 2.36.113 3.521.33.599.2.693.553.693 1.46v-.048zM63.958 55.515c0 .48-.39.87-.869.87h-5.047c-.48 0-.869-.39-.869-.87v-41.6c0-.477.382-.866.857-.872h5.047c.48 0 .87.39.87.872v41.6h.01zm11.855 0c0 .48-.39.87-.868.87h-5.048c-.48 0-.869-.39-.869-.87v-41.6c0-.482.39-.872.869-.872h5.048c.479 0 .868.39.868.872v41.6zm110.628-11.062c-1.104 3.307-3.722 5.883-7.348 5.966-3.628.083-6.245-2.66-7.337-5.966-.78-2.29-.78-4.773 0-7.061 1.104-3.307 3.721-5.885 7.337-5.967 3.615-.082 6.244 2.66 7.348 5.967.776 2.285.776 4.764 0 7.049v.012zm4.812-12.946c-5.206-6.726-14.865-7.948-21.575-2.73-1.017.793-1.932 1.71-2.722 2.73-1.927 2.757-2.937 6.05-2.888 9.415-.049 3.365.961 6.659 2.888 9.414 5.206 6.727 14.865 7.95 21.574 2.73 1.018-.791 1.933-1.708 2.723-2.73 1.925-2.755 2.936-6.05 2.888-9.414.048-3.364-.963-6.658-2.888-9.415z" transform="translate(-784 -2765) translate(148 2440) translate(622 320)"/>
                </g>
            </g>
        </g>
    </g>
</svg>
