<svg xmlns="http://www.w3.org/2000/svg" width="91" height="58" viewBox="0 0 91 58">
    <g fill="none" fill-rule="evenodd">
        <g fill-rule="nonzero">
            <g>
                <g>
                    <g>
                        <path fill="#222" d="M82.806.02H7.212c-.262.003-.524.006-.786.013-.57.015-1.147.048-1.71.15-.573.102-1.106.27-1.626.533-.511.259-.979.597-1.385 1-.405.405-.746.87-1.006 1.38-.264.517-.433 1.047-.535 1.618-.102.561-.135 1.134-.15 1.701-.008.261-.011.522-.013.782L0 8.127v41.736l.001.93c.002.26.005.52.012.78.016.568.05 1.141.151 1.702.102.57.27 1.101.535 1.619.26.51.6.974 1.006 1.378.406.404.874.743 1.385 1 .52.265 1.053.432 1.626.535.563.1 1.14.134 1.71.15.262.006.524.01.786.01.31.003.622.003.933.003h74.66c.311 0 .623 0 .933-.003.262 0 .524-.004.787-.01.57-.016 1.145-.05 1.71-.15.572-.103 1.105-.27 1.626-.534.511-.258.978-.597 1.384-1 .405-.405.745-.87 1.006-1.38.265-.517.433-1.047.535-1.618.102-.56.135-1.134.15-1.701.008-.26.011-.521.013-.782.002-.31.002-.619.002-.929V8.126c0-.31 0-.62-.002-.929-.002-.26-.005-.52-.012-.782-.016-.567-.049-1.14-.15-1.701-.103-.57-.27-1.101-.536-1.619-.26-.51-.6-.974-1.006-1.378-.406-.404-.873-.742-1.384-1.001-.52-.264-1.054-.431-1.626-.533-.565-.102-1.14-.135-1.71-.15-.263-.007-.525-.01-.787-.012-.31-.002-.622-.002-.932-.002" transform="translate(-222 -3758) translate(120 3309) translate(102 449)"/>
                        <path fill="#FFFFFE" d="M82.806 1.95l.919.002c.248.002.497.005.747.012.435.011.945.035 1.42.12.411.073.758.186 1.09.354.327.166.628.383.89.644.263.262.482.561.65.891.168.328.28.67.355 1.084.084.468.108.976.12 1.412.007.245.01.491.01.743.003.305.003.609.003.914v41.737c0 .305 0 .61-.002.92-.001.246-.004.492-.012.739-.011.435-.035.943-.12 1.415-.074.408-.186.75-.355 1.08-.168.33-.386.628-.648.889-.264.262-.563.479-.895.646-.33.168-.675.28-1.083.353-.485.086-1.015.11-1.414.12-.251.006-.501.01-.758.01-.305.003-.612.003-.917.003H8.133c-.302 0-.605 0-.912-.002-.25-.001-.5-.005-.742-.01-.409-.01-.94-.035-1.42-.12-.412-.074-.757-.186-1.091-.356-.329-.165-.628-.382-.891-.645-.262-.26-.48-.558-.648-.888-.168-.329-.281-.672-.355-1.085-.085-.472-.11-.978-.121-1.41-.007-.247-.01-.495-.011-.74l-.001-.727V7.21c.003-.248.005-.495.012-.742.012-.433.036-.939.122-1.415.073-.408.186-.752.355-1.083.167-.327.385-.626.648-.887.262-.262.562-.478.893-.646.33-.167.676-.28 1.088-.353.475-.085.984-.109 1.42-.12.249-.007.498-.01.744-.012l.922-.001h74.66" transform="translate(-222 -3758) translate(120 3309) translate(102 449)"/>
                    </g>
                    <g>
                        <g fill="#5F6368">
                            <path d="M2.607 12.292v8.26H.017V.161h6.872C8.546.13 10.156.765 11.33 1.936c2.35 2.211 2.494 5.934.29 8.324l-.29.293c-1.207 1.154-2.688 1.74-4.442 1.74H2.607zm0-9.626v7.122h4.346c.966.032 1.9-.358 2.559-1.057 1.352-1.415 1.32-3.69-.08-5.057-.66-.65-1.546-1.008-2.48-1.008H2.608zM19.169 6.146c1.915 0 3.428.52 4.538 1.544 1.111 1.025 1.658 2.455 1.658 4.26v8.601h-2.478v-1.935h-.113c-1.078 1.594-2.495 2.39-4.281 2.39-1.513 0-2.8-.455-3.815-1.365-.998-.846-1.56-2.098-1.529-3.415 0-1.447.548-2.585 1.626-3.447 1.078-.861 2.527-1.284 4.33-1.284 1.544 0 2.8.293 3.798.845v-.601c0-.894-.387-1.74-1.063-2.325-.692-.618-1.577-.96-2.494-.96-1.449 0-2.591.618-3.428 1.854l-2.286-1.447c1.223-1.805 3.074-2.715 5.537-2.715zM15.82 16.275c0 .683.322 1.317.853 1.707.58.455 1.288.7 2.012.683 1.094 0 2.14-.439 2.913-1.22.853-.812 1.288-1.772 1.288-2.877-.805-.65-1.932-.976-3.38-.96-1.046 0-1.932.26-2.64.765-.692.504-1.046 1.138-1.046 1.902zM39.593 6.601L30.934 26.681 28.262 26.681 31.481 19.657 25.8 6.601 28.616 6.601 32.72 16.616 32.769 16.616 36.776 6.601z" transform="translate(-222 -3758) translate(120 3309) translate(102 449) translate(10.44 16.415) translate(30.74 1.626)"/>
                        </g>
                        <g>
                            <path fill="#4285F4" d="M22.87 12.129c0-.797-.064-1.593-.193-2.374H11.75v4.504h6.261c-.258 1.447-1.094 2.748-2.318 3.56v2.927h3.734c2.19-2.032 3.445-5.04 3.445-8.617z" transform="translate(-222 -3758) translate(120 3309) translate(102 449) translate(10.44 16.415)"/>
                            <path fill="#34A853" d="M11.75 23.575c3.121 0 5.761-1.04 7.676-2.829l-3.734-2.926c-1.046.715-2.382 1.121-3.943 1.121-3.026 0-5.585-2.064-6.502-4.828H1.4v3.024c1.964 3.95 5.971 6.438 10.35 6.438z" transform="translate(-222 -3758) translate(120 3309) translate(102 449) translate(10.44 16.415)"/>
                            <path fill="#FBBC04" d="M5.247 14.113c-.483-1.447-.483-3.025 0-4.488V6.617H1.4c-1.658 3.3-1.658 7.203 0 10.503l3.847-3.007z" transform="translate(-222 -3758) translate(120 3309) translate(102 449) translate(10.44 16.415)"/>
                            <path fill="#EA4335" d="M11.75 4.796c1.657-.032 3.25.602 4.441 1.756l3.316-3.349C17.398 1.219 14.63.13 11.749.163 7.371.163 3.364 2.666 1.4 6.617l3.847 3.024c.917-2.78 3.476-4.845 6.502-4.845z" transform="translate(-222 -3758) translate(120 3309) translate(102 449) translate(10.44 16.415)"/>
                        </g>
                    </g>
                </g>
            </g>
        </g>
    </g>
</svg>
