<svg xmlns="http://www.w3.org/2000/svg" width="193" height="70" viewBox="0 0 193 70">
    <g fill="none" fill-rule="evenodd">
        <g fill="#222">
            <g>
                <g>
                    <path d="M73.36 13.625c-2.19-.778-4.493-1.24-6.739-1.868-.919-.257-1.828-.56-2.723-.891-1.06-.391-1.83-1.093-1.82-2.29.009-1.278.58-2.33 1.752-2.91 1.305-.647 2.718-.573 4.13-.425 2.382.251 3.414 1.694 3.869 3.317.07.248.147.493.216.723h5.486c.297-2.703-1.293-5.238-3.494-6.699-1.335-.886-2.832-1.329-4.424-1.616-2.692-.486-5.284-.34-7.843.63-3.141 1.191-5.746 4.01-5.406 8.063.137 1.645.826 2.967 1.945 4.102 1.369 1.386 3.16 2.031 4.961 2.58 1.855.566 3.773.93 5.622 1.512 1.009.316 2.033.767 2.875 1.393 1.537 1.142 1.484 3.163.015 4.4-.7.589-1.508.94-2.423 1.073-1.272.183-2.51.303-3.816.034-2.19-.452-3.995-1.789-4.342-3.937-.05-.312-.139-.914-.139-.914-1.854 0-3.919-.009-5.68-.009 0 0 .04.704.055.881.308 3.56 2.285 5.939 5.431 7.403 1.69.785 3.515 1.099 5.393 1.153 2.63.076 5.178-.14 7.611-1.289 3.9-1.843 5.57-6.085 4.273-9.886-.786-2.306-2.581-3.748-4.785-4.53M47.314 17.193c-.33 2.826-1.476 5.266-4.076 6.802-1.385.819-2.908.861-4.432.792-3.677-.17-5.951-3.1-6.636-6.16-.11-.493-.263-.985-.303-1.485-.053-.652-.1-1.297-.1-1.953-.026-1.892.264-3.696 1.07-5.403 1.458-3.09 4.008-4.461 7.373-4.3 3.405.162 5.67 2.682 6.528 5.265.705 2.128.828 4.285.576 6.442m3.154-10.67C47.876 2.722 44.186.991 38.89.986c-1.478-.101-3.553.413-5.52 1.364-2.224 1.075-3.86 2.787-5.111 4.88-1.465 2.452-1.984 5.176-2.023 7.962-.028 1.923.27 3.847.968 5.69.72 1.898 1.723 3.604 3.205 4.993 1.762 1.652 3.869 2.643 6.247 3.112 3.612.713 7.04.268 10.194-1.646 2.903-1.764 4.628-4.437 5.498-7.664.618-2.297.718-4.628.38-6.998-.319-2.224-1-4.304-2.261-6.156M87.684 23.886v-7.12h11.491v-4.31H87.684V6.212c4.684-.032 9.525.012 14.3-.024V1.42H82.02v27.278h19.999l-.03-4.812H87.684zM14.854 1.406c-4.435-.12-8.874-.053-13.311-.058H.716V5.98h1.161c3.748 0 7.496-.02 11.244.017.669.006 1.396.108 1.992.386 1.996.935 2.62 3.196 1.796 5.009-.699 1.542-2.037 2.246-3.782 2.232-3.777-.032-7.556-.012-11.333-.008H.716V28.81h5.442s-.002-.764 0-1.112c.009-2.803-.042-5.614 0-8.417 0 0-.006-1.462 0-1.229h.537c1.478-.008 3.846-.013 5.48-.014.852 2.208 2.033 5.292 2.857 7.407.44 1.13.95 2.317 1.37 3.365h5.41c-1.402-3.627-2.882-7.454-4.319-11.175.485-.276.68-.356.98-.522 1.708-.947 2.88-2.395 3.64-4.186 1.091-2.566.906-5.065-.51-7.456-1.511-2.553-3.8-3.986-6.75-4.065M119.957 14.305c-.29 0-.942.013-.942.013v2.439h9.105c-.102 2.619-.82 4.837-2.414 6.739-1.806 2.155-4.077 3.516-6.927 3.663-1.143.058-2.325-.096-3.453-.328-2.82-.578-4.765-2.373-6.218-4.747-.922-1.509-1.338-3.169-1.303-4.939.048-2.433-.287-4.88.46-7.282 1.26-4.041 4.37-6.834 8.451-7.31 3.63-.423 6.787.823 9.114 3.754.625.788 1.122 1.673 1.706 2.557h2.281c-.096-.365-.125-.57-.203-.755-.57-1.353-1.285-2.619-2.285-3.706-2.362-2.573-5.206-4.14-8.79-4.149-.63-.002-1.268-.057-1.889.015-.857.099-1.744.181-2.544.473-2.775 1.01-5.05 2.697-6.592 5.252-1.042 1.725-1.886 3.526-1.923 5.6-.029 1.58-.115 3.16-.093 4.738.025 1.818.138 3.628.927 5.325 2.009 4.321 5.166 7.176 10.058 7.755 2.58.304 5.104-.023 7.396-1.304 2.87-1.603 4.896-3.95 5.951-7.096.6-1.787.654-3.624.631-5.475 0-.461.006-.87.019-1.236-3.109-.002-7.655-.001-10.523.004M176.462 26.523c-1.633 0-13.006-.018-14.725-.028V1.012l-2.421.023c-.015.354-.001 19.483 0 27.774 4.863.002 17.177 0 17.177 0l-.03-2.286zM139.154 16.484l4.799-12.811.412-.003s2.613 6.987 3.147 8.435c.522 1.414 1.109 2.972 1.624 4.379h-9.982zm9.804-7.165c-.87-2.33-2.229-5.98-3.19-8.635l-3.015.002c-3.452 8.94-7.291 18.91-10.78 28.124h2.535c1.183-3.19 3.377-9.021 3.68-9.783h11.913c.963 2.605 2.523 6.677 3.67 9.783h2.446c-.72-1.983-1.927-5.268-2.409-6.553-1.618-4.313-3.238-8.624-4.85-12.938z" transform="translate(-167 -1736) translate(153 1731) translate(22.773 25.125)"/>
                </g>
            </g>
        </g>
    </g>
</svg>
