<svg xmlns="http://www.w3.org/2000/svg" width="192" height="70" viewBox="0 0 192 70">
    <g fill="none" fill-rule="evenodd">
        <g fill="#222">
            <g>
                <g>
                    <path d="M177.31 13.03c-1.222.723-1.982 2.027-2.327 3.377-.49 1.953-.79 4.01-.41 6.008.182.931.622 1.887 1.462 2.39.636.379 1.43.296 2.096.042.809-.315 1.556-.803 2.147-1.442 1.17-1.249 1.805-2.894 2.198-4.537.433-1.886.586-3.832.542-5.764-.487-.238-1.018-.365-1.539-.5-1.38-.301-2.919-.316-4.169.425M184.498.513c1.73-.07 3.46-.144 5.19-.221-.953 9.51-1.899 19.021-2.844 28.532-1.77.01-3.537.029-5.306.043.07-.89.136-1.78.21-2.667.027-.213-.023-.424-.072-.629-.943 1.277-2.165 2.365-3.62 3.015-1.677.763-3.653.878-5.393.26-1.376-.517-2.305-1.776-2.864-3.09-.828-1.947-1.047-4.107-.92-6.205.128-1.907.565-3.803 1.365-5.544.657-1.427 1.574-2.755 2.784-3.768 1.326-1.127 2.994-1.88 4.74-1.997 2.004-.14 4.033.435 5.737 1.485l.157-.193c.272-3.008.558-6.013.836-9.02M7.397 17.378c-.216 2.277-.431 4.554-.65 6.83-.025.122-.007.339.16.33 1.764.007 3.529.006 5.292 0 .75-.104 1.569-.204 2.158-.728.716-.615 1.107-1.507 1.423-2.376.244-.658.328-1.4.098-2.074-.23-.7-.781-1.236-1.372-1.643-.301-.183-.618-.4-.984-.389-1.997-.026-3.992-.057-5.987-.087-.035.033-.104.102-.138.137M8.483 6.283c-.194 2.06-.39 4.12-.588 6.18l.136.137c1.42-.001 2.841-.004 4.262 0 .717.036 1.443-.129 2.09-.437.947-.522 1.42-1.58 1.66-2.587.223-.818.226-1.777-.321-2.471-.487-.599-1.213-1.084-2.01-1.056C12.07 6.03 10.43 6 8.787 5.978c-.18-.04-.31.14-.303.305M3.595 1.681c3.468.018 6.934.028 10.401.042 1.474-.031 2.952.248 4.32.789 1.044.435 2.07 1.052 2.714 2.01.676.968.905 2.193.795 3.357-.09 1.597-.563 3.211-1.567 4.476-.492.645-1.134 1.155-1.812 1.593-.297.194-.608.38-.834.66.221.23.476.422.741.597.889.597 1.75 1.286 2.317 2.212.756 1.169.973 2.629.736 3.988-.314 1.8-1.133 3.551-2.48 4.806-2.09 1.907-4.998 2.644-7.769 2.629-3.53-.03-7.06-.035-10.59-.05 1.009-9.036 2.02-18.073 3.028-27.11M32.192 13.976c-.92.938-1.358 2.218-1.653 3.472-.363 1.484-.579 3.031-.385 4.558.105.718.318 1.445.773 2.02.372.48.906.853 1.517.933.88.121 1.764-.185 2.527-.609 1.226-.757 1.979-2.066 2.484-3.382.937-2.485 1.235-5.157 1.363-7.795-.097-.067-.19-.143-.302-.18-1.054-.389-2.195-.568-3.315-.462-1.136.09-2.237.601-3.01 1.444m1.402-5.537c1.694-.278 3.428-.218 5.122.019 1.987.477 3.97.971 5.957 1.451-.722 6.292-1.449 12.58-2.173 18.872-1.735-.01-3.471-.032-5.207-.034.107-1.015.19-2.032.297-3.048l-.16-.205c-1.19 1.47-2.728 2.704-4.513 3.358-1.552.57-3.362.566-4.824-.26-1.372-.742-2.293-2.108-2.817-3.55-.784-2.179-.772-4.578-.304-6.827.484-2.39 1.308-4.79 2.891-6.684 1.429-1.716 3.55-2.75 5.731-3.091M60.162 8.713c1.594-.555 3.436-.655 4.983.093 1.157.552 1.858 1.727 2.207 2.92.568 1.947.503 4.01.35 6.012-.346 3.72-.765 7.435-1.248 11.14-1.748-.018-3.497-.04-5.244-.058.303-2.515.608-5.03.879-7.55.192-1.771.4-3.543.517-5.321.103-1.202-.455-2.456-1.448-3.146-.571-.4-1.346-.43-1.968-.134-.618.285-1.12.762-1.569 1.263-.755.87-1.324 1.882-1.838 2.908-.658 1.59-.907 3.31-1.116 5.006-.248 2.352-.511 4.702-.731 7.057-1.746-.04-3.494-.087-5.24-.118.697-6.704 1.403-13.407 2.088-20.114 1.766-.03 3.532-.059 5.299-.1-.14.975-.245 1.956-.377 2.931-.012.16-.076.344.05.475.094-.064.178-.142.253-.229 1.08-1.357 2.521-2.442 4.153-3.035M133.106 12.366c-.957.218-1.737.88-2.358 1.613-1.006 1.215-1.58 2.763-1.684 4.335-.1 1.49-.34 3.009.01 4.483.192.844.689 1.659 1.473 2.063.727.37 1.566.253 2.351.267 1.008-.002 1.957-.503 2.665-1.198 1.173-1.108 1.842-2.672 2.037-4.261.16-1.363.454-2.734.277-4.11-.112-.922-.445-1.861-1.145-2.5-.508-.509-1.23-.761-1.94-.764-.563.003-1.133-.045-1.686.072m.094-3.982c1.847-.14 3.766-.167 5.527.488 1.436.522 2.74 1.484 3.534 2.809.959 1.539 1.233 3.423 1.037 5.207-.137 1.2-.232 2.405-.397 3.6-.29 1.977-1.198 3.845-2.517 5.336-1.86 2.093-4.599 3.4-7.403 3.424-1.007-.002-2.021.038-3.02-.116-1.658-.242-3.268-.966-4.46-2.16-1.18-1.194-1.888-2.813-2.079-4.476-.17-1.363.055-2.73.151-4.09.145-1.944.759-3.866 1.866-5.476 1.746-2.572 4.698-4.211 7.761-4.546M155.918 12.352c-.543.114-1.047.377-1.483.715-1.214.957-2.026 2.364-2.4 3.854-.186.71-.22 1.447-.28 2.176-.104 1.303-.239 2.648.133 3.924.218.776.72 1.497 1.452 1.857.707.346 1.517.235 2.278.25 1.032.006 2.002-.507 2.723-1.223 1.163-1.112 1.825-2.674 2.014-4.259.16-1.35.451-2.71.276-4.075-.108-.91-.431-1.841-1.113-2.482-.5-.51-1.207-.782-1.915-.793-.562-.001-1.13-.042-1.685.056m-.258-3.931c.956-.132 1.926-.124 2.89-.098 1.774.052 3.574.573 4.981 1.684 1.343 1.047 2.19 2.653 2.46 4.322.16.944.144 1.907.029 2.854-.133 1.14-.215 2.286-.385 3.42-.523 3.323-2.784 6.302-5.832 7.704-1.304.616-2.745.94-4.186.943-.982-.003-1.971.033-2.944-.123-1.628-.248-3.21-.957-4.39-2.124-1.173-1.177-1.89-2.769-2.095-4.412-.193-1.386.038-2.78.135-4.163.142-1.897.721-3.774 1.777-5.362 1.678-2.564 4.549-4.237 7.56-4.645M143.318 39.248c1.669-.17 3.357.147 4.917.74-.093.738-.19 1.475-.283 2.214-1.246-.434-2.581-.6-3.895-.485-1.43.061-2.671 1.123-3.167 2.435-.426 1.087-.41 2.303-.143 3.426.222.832.995 1.4 1.803 1.589 1.47.339 2.997.063 4.438-.297l.172 2.12c-1.738.494-3.56.806-5.368.613-1.142-.13-2.319-.534-3.102-1.415-1.007-1.155-1.402-2.74-1.346-4.248.055-1.761.702-3.528 1.922-4.813 1.064-1.095 2.547-1.723 4.052-1.879M156.415 41.55c-.945.252-1.612 1.087-2.016 1.938-.46.939-.444 2.005-.519 3.024-.028.822.068 1.767.733 2.34.444.42 1.1.356 1.665.356.798.006 1.494-.505 1.967-1.113.516-.64.793-1.445.894-2.257.124-.95.32-1.937.041-2.88-.196-.691-.761-1.328-1.496-1.426-.422-.04-.852-.056-1.27.019m-.085-2.273c.766-.084 1.543-.091 2.31-.001.984.131 1.955.532 2.667 1.24.827.851 1.205 2.067 1.16 3.24-.049.862-.156 1.72-.254 2.577-.28 2.155-1.802 4.091-3.836 4.851-1.054.432-2.21.426-3.328.378-1.044-.062-2.086-.42-2.89-1.101-.775-.657-1.253-1.62-1.418-2.614-.164-.943 0-1.898.074-2.84.137-1.474.762-2.915 1.82-3.96.998-.968 2.32-1.585 3.695-1.77M172.21 39.706c.749-.378 1.6-.615 2.44-.49.788.11 1.555.53 1.984 1.217.248.352.353.778.578 1.144 1.004-1.054 2.248-1.975 3.7-2.263.962-.152 2.045-.09 2.848.519.557.455.814 1.17.955 1.855.269 1.403.09 2.838-.018 4.249-.135 1.802-.338 3.599-.553 5.393-.973 0-1.943-.001-2.915.001.178-2.554.33-5.11.502-7.665.032-.668-.128-1.436-.684-1.866-.349-.281-.838-.219-1.223-.056-1.2.505-2.086 1.62-2.425 2.868-.316 1.001-.38 2.055-.497 3.092-.102 1.196-.202 2.392-.3 3.589-.983.02-1.968.047-2.95.089.162-2.352.325-4.705.472-7.058.008-.876-.054-1.9-.746-2.528-.352-.344-.905-.261-1.3-.043-1.145.614-1.886 1.786-2.231 3.015-.287.93-.354 1.907-.474 2.868-.144 1.265-.303 2.527-.434 3.793-.976-.044-1.953-.061-2.928-.097.329-3.975.666-7.951.982-11.928 1.016.028 2.034.048 3.052.064-.006.508-.037 1.02-.025 1.529l.093.25c.62-.613 1.324-1.14 2.098-1.541M81.327 12.737c-1.328.408-2.387 1.464-2.989 2.698-.739 1.519-1.179 3.19-1.242 4.88-.02 1.073.077 2.19.582 3.156.4.763 1.13 1.413 2.015 1.487 1.18.099 2.37-.408 3.194-1.247 1.133-1.11 1.74-2.626 2.175-4.123.598-2.116.818-4.32.892-6.512-.11-.09-.232-.167-.371-.202-1.365-.438-2.872-.579-4.256-.137m-3.82-3.158c1.725-.864 3.688-1.122 5.596-1.107 2.963.048 5.894.692 8.688 1.657-.546 4.017-1.133 8.033-1.427 12.078-.144 1.897-.171 3.809-.49 5.688-.274 1.676-.747 3.341-1.6 4.818-.863 1.513-2.13 2.788-3.634 3.663-1.51.802-3.254.993-4.939 1.007-2.644-.014-5.266-.49-7.817-1.165.38-1.247.71-2.51 1.072-3.762 2.322.724 4.792.904 7.21.71.866-.033 1.754-.275 2.424-.847 1-.795 1.574-2 1.877-3.219.261-1.037.354-2.112.36-3.181.018-.174-.055-.33-.134-.48-.978 1.173-2.14 2.212-3.488 2.938-1.26.685-2.736 1.049-4.165.806-1.167-.2-2.266-.757-3.148-1.544-1.117-1.059-1.724-2.551-1.994-4.044-.39-2.286-.134-4.646.522-6.858.536-1.766 1.333-3.47 2.474-4.928.707-.91 1.584-1.704 2.613-2.23M107.776 13.732c-.964.848-1.5 2.056-1.902 3.25-.526 1.608-.77 3.337-.506 5.018.165 1.025.63 2.076 1.54 2.641.773.477 1.75.385 2.57.085.87-.298 1.577-.932 2.135-1.647.664-.862 1.093-1.876 1.436-2.902.738-2.297.992-4.72 1.07-7.12-.5-.3-1.093-.377-1.654-.492-1.624-.278-3.452.002-4.689 1.167m1.346-5.144c2.394-.29 4.818-.01 7.164.498 1.245.273 2.472.62 3.674 1.044-.632 4.58-1.297 9.163-1.54 13.786-.123 2.387-.334 4.811-1.172 7.07-.822 2.27-2.424 4.271-4.543 5.443-1.71.861-3.678.993-5.56.942-2.397-.098-4.77-.53-7.084-1.154.357-1.254.708-2.51 1.06-3.765 2.524.792 5.221.94 7.84.651 1.29-.16 2.36-1.086 2.975-2.197.884-1.62 1.07-3.517 1.056-5.334-.06-.006-.178-.017-.237-.024-1.04 1.26-2.328 2.334-3.804 3.04-1.384.66-3.013.894-4.491.418-1.245-.404-2.42-1.15-3.158-2.252-.898-1.3-1.284-2.882-1.392-4.441-.182-3.033.562-6.1 2.004-8.764.79-1.418 1.81-2.76 3.19-3.645 1.206-.763 2.616-1.135 4.018-1.316M112.113 42.53c-.592.282-1.19.554-1.79.818-4.03 1.753-8.229 3.16-12.56 3.936-2.957.52-5.992.703-8.973.283-3.02-.408-5.957-1.288-8.784-2.408-2.483-.995-4.896-2.166-7.21-3.51-.463-.27-.947.33-.587.727 1.395 1.536 2.933 2.943 4.577 4.208 2.42 1.841 5.104 3.358 7.985 4.34 2.891 1 5.978 1.43 9.031 1.24 4.48-.23 8.89-1.59 12.742-3.893 2.263-1.346 4.344-3 6.17-4.898.41-.424-.07-1.095-.6-.842M123.94 48.944c.524-.167 1.198.035 1.434.562.281.547.108 1.34-.47 1.618-.572.311-1.423.098-1.666-.54-.283-.612.017-1.47.703-1.64" transform="translate(-471 -1597) translate(457 1592) translate(14.873 13.75)"/>
                </g>
            </g>
        </g>
    </g>
</svg>
