<svg xmlns="http://www.w3.org/2000/svg" width="192" height="70" viewBox="0 0 192 70">
    <g fill="none" fill-rule="evenodd">
        <g fill="#222">
            <g>
                <g>
                    <path d="M63.237 50.715L63.237 21.767 80.226 21.767 80.226 25.396 66.755 25.396 66.755 34.296 78.853 34.296 78.853 37.926 66.755 37.926 66.755 46.999 81.17 46.999 81.17 50.628 63.237 50.628zM99.017 50.715L93.182 43.025 87.347 50.715 83.23 50.715 91.209 40.432 82.8 29.803 87.434 29.803 93.182 37.754 99.017 29.803 103.564 29.803 95.585 40.432 103.136 50.715zM108.799 47.604v14.258h-3.518V40.518c0-5.444 4.118-11.233 10.554-11.233 6.52 0 11.411 4.148 11.411 10.974 0 6.654-4.976 11.234-10.639 11.234-2.746 0-6.435-1.21-7.808-3.889m14.758-7.345c0-4.666-3.003-7.43-8.323-7.172-2.574.087-6.52 1.987-6.178 8.642.086 2.16 2.317 6.22 7.208 6.22 4.204 0 7.293-2.419 7.293-7.69M130.25 50.715V29.803h3.518v2.247c1.716-1.988 4.375-2.679 7.207-2.679v3.803c-.429-.087-4.634-.606-7.207 4.925v12.703h-3.518v-.087zM141.919 40.26c0-6.05 4.29-10.975 10.21-10.975 7.38 0 10.125 4.926 10.125 11.233v1.729H145.78c.257 3.975 3.775 6.048 7.036 5.962 2.402-.086 4.033-.777 5.75-2.505l2.316 2.42c-2.145 2.073-4.891 3.455-8.237 3.455-6.264-.086-10.726-4.753-10.726-11.32m9.953-7.43c-3.346 0-5.92 2.936-6.092 6.135h12.785c0-3.112-2.23-6.136-6.693-6.136M164.057 47.777l2.573-2.333c-.085 0 1.288 1.383 1.46 1.469.6.519 1.2.864 1.973 1.037 2.23.605 6.263.432 6.607-2.679.171-1.728-1.116-2.679-2.574-3.284-1.888-.69-3.948-.95-5.835-1.814-2.146-.95-3.517-2.592-3.517-5.011 0-6.31 8.922-7.346 12.955-4.408.172.173 2.145 1.987 2.06 1.987l-2.575 2.075c-1.286-1.556-2.488-2.334-5.233-2.334-1.373 0-3.261.605-3.604 2.074-.515 2.074 1.801 2.852 3.346 3.284 2.06.518 4.29.864 6.092 1.987 2.489 1.556 3.09 4.925 2.145 7.518-1.03 2.852-4.119 3.975-6.864 4.06-3.26.174-6.092-.863-8.409-3.195-.172 0-.6-.433-.6-.433M182.161 47.777l2.575-2.333c-.086 0 1.286 1.383 1.458 1.469.6.519 1.202.864 1.973 1.037 2.23.605 6.265.432 6.608-2.679.17-1.728-1.116-2.679-2.575-3.284-1.888-.69-3.947-.95-5.834-1.814-2.145-.95-3.518-2.592-3.518-5.011 0-6.31 8.924-7.346 12.956-4.408.172.173 2.145 1.987 2.06 1.987l-2.574 2.075c-1.288-1.556-2.49-2.334-5.235-2.334-1.373 0-3.26.605-3.604 2.074-.514 2.074 1.802 2.852 3.346 3.284 2.06.518 4.292.864 6.093 1.987 2.488 1.556 3.09 4.925 2.145 7.518-1.03 2.852-4.118 3.975-6.865 4.06-3.26.174-6.091-.863-8.408-3.195-.172 0-.6-.433-.6-.433M198.893 29.803L198.893 27.556 198.121 27.556 198.121 27.124 200.18 27.124 200.18 27.556 199.408 27.556 199.408 29.803zM202.754 29.803L202.754 27.73 201.982 29.803 201.81 29.803 201.038 27.73 201.038 29.803 200.609 29.803 200.609 27.124 201.296 27.124 201.982 28.94 202.669 27.124 203.355 27.124 203.355 29.803zM39.383 50.715l-2.574-6.913h-13.9l-2.575 6.913h-3.689L27.8 21.767h4.032l11.07 28.948h-3.519zm-9.696-24.8L24.454 40.26H35.35l-5.663-14.345zM45.218 50.715L48.822 50.715 48.822 21.768 45.218 21.768zM54.227 50.715L57.831 50.715 57.831 30.236 54.227 30.236zM61.263 23.582v-.346c-2.745-.086-4.977-2.333-5.062-5.098h-.515c-.086 2.765-2.317 5.012-5.062 5.098v.346c2.745.086 4.976 2.333 5.062 5.098h.515c.085-2.765 2.317-5.012 5.062-5.098" transform="translate(-461 -2765) translate(148 2440) translate(299 320)"/>
                </g>
            </g>
        </g>
    </g>
</svg>
