<svg xmlns="http://www.w3.org/2000/svg" width="192" height="70" viewBox="0 0 192 70">
    <g fill="none" fill-rule="evenodd">
        <g fill="#222">
            <g>
                <g>
                    <path d="M27.072 37.696H.37v-1.748L20.006 2.736v-.368h-6.882c-2.937 0-5.138.644-6.606 1.84C5.14 5.404 4.039 7.61 3.305 10.832H1.93L2.57.895h25.05v1.84L7.894 35.949v.369h8.351c3.12 0 5.414-.737 6.79-2.3 1.469-1.473 2.478-4.324 3.212-8.557h1.468l-.642 12.236zM40.286 25.092h10.46l-4.954-14.904h-.551l-4.955 14.904zm8.809 12.603v-1.379h5.322l-3.212-9.751h-11.47l-3.12 9.751h5.414v1.38H30.834v-1.38h4.22L47.077.068h1.743l12.297 36.248h4.221v1.38H49.095zM78.642 19.02v17.204h5.506v1.38H66.805v-1.38h5.047V2.184h-5.047V.711h28.538l.367 11.04h-1.193c-.458-3.586-1.376-6.071-2.753-7.544-1.377-1.38-3.487-2.116-6.607-2.116h-6.515v15.641h.643c2.569 0 4.404-.46 5.321-1.472 1.01-.92 1.653-2.76 1.927-5.336h1.193v14.812h-1.193c-.274-2.667-.825-4.508-1.835-5.428-1.009-.92-2.936-1.473-5.688-1.473h-.368v.184zM110.484 26.38v.92c0 3.496.55 5.98 1.744 7.36 1.192 1.38 3.12 2.116 5.78 2.116 3.12 0 5.507-.827 7.158-2.485 1.652-1.656 2.386-4.138 2.386-7.36V2.185h-5.048V.804h11.654v1.38h-5.23V26.84c0 3.956-1.009 6.808-3.027 8.74-2.02 1.932-5.14 2.852-9.269 2.852-4.313 0-7.617-.92-9.727-2.76-2.203-1.84-3.303-4.508-3.303-8.096V2.184h-5.046V.804h16.975v1.38h-5.047V26.38zM165.266 37.696h-28.814v-1.38h5.047V2.277h-5.047V.805h16.977v1.473h-5.139v34.04h5.415c3.394 0 5.871-.829 7.432-2.485 1.56-1.657 2.568-4.6 3.027-8.74h1.285l-.183 12.604z" transform="translate(-168 -1458) translate(154 1453) translate(27.09 20.75)"/>
                </g>
            </g>
        </g>
    </g>
</svg>
