<svg xmlns="http://www.w3.org/2000/svg" width="192" height="70" viewBox="0 0 192 70">
    <g fill="none" fill-rule="evenodd">
        <g fill="#222">
            <g>
                <g>
                    <path d="M83.14 7.465h4.132c.007.985.017 1.949.021 2.912.003.975 0 1.952 0 2.926v5.881c1.014-.217 1.631-.843 2.175-1.531.551-.698 1.035-1.452 1.619-2.282 1.49-.271 3.119-.568 4.851-.885-.366.988-.813 1.92-1.42 2.751-.6.821-1.286 1.579-1.978 2.417l4.406 8.442c-.54.168-3.454.22-4.733.082l-3.317-6.413-1.605.344v6.09H83.16c-.206-.588-.234-19.908-.018-20.734M63.258 17.928c-.07.252-.263.494-.457.679-.16.15-.396.242-.614.302-1.471.406-2.973.403-4.59.38-.001-1.075.073-2.008.584-2.851.34-.563.872-.92 1.495-.958.755-.046 1.538-.017 2.275.137.906.19 1.557 1.415 1.307 2.31m-.686-5.81c-1.111-.143-2.247-.222-3.362-.157-2.623.153-4.752 1.973-5.42 4.48-.594 2.226-.613 4.46-.33 6.716.132 1.056.467 2.046.985 2.975.359.643.85 1.127 1.486 1.509.949.566 1.971.843 3.054.93 2.215.177 4.392-.12 6.555-.563.39-.08.773-.185 1.192-.286l-.345-3.091c-.741.153-1.387.3-2.04.417-1.703.302-3.398.457-5.064-.225-1.208-.496-1.72-1.275-1.675-2.761.323 0 .599.01.873-.002 1.304-.059 2.61-.088 3.91-.196 1.285-.108 2.544-.38 3.572-1.233.32-.266.603-.631.776-1.007.473-1.026.299-2.095.15-3.174-.299-2.175-2.293-4.076-4.317-4.333M77.75 17.928c-.072.252-.264.494-.458.679-.16.15-.396.242-.614.302-1.47.406-2.973.403-4.59.38 0-1.075.073-2.008.584-2.851.34-.563.872-.92 1.495-.958.756-.046 1.538-.017 2.276.137.906.19 1.557 1.415 1.306 2.31m-.686-5.81c-1.11-.143-2.246-.222-3.362-.157-2.623.153-4.752 1.973-5.42 4.48-.593 2.226-.613 4.46-.33 6.716.133 1.056.467 2.046.985 2.975.359.643.85 1.127 1.487 1.509.948.566 1.97.843 3.053.93 2.215.177 4.393-.12 6.555-.563.39-.08.774-.185 1.192-.286l-.345-3.091c-.741.153-1.387.3-2.039.417-1.703.302-3.4.457-5.065-.225-1.208-.496-1.72-1.275-1.674-2.761.322 0 .598.01.873-.002 1.304-.059 2.61-.088 3.909-.196 1.285-.108 2.544-.38 3.573-1.233.319-.266.602-.631.775-1.007.474-1.026.299-2.095.15-3.174-.299-2.175-2.292-4.076-4.317-4.333M168.367 13.94c-.328-.053-.664-.057-.995-.011-.442.062-.901.122-1.341.252-.954.282-1.626.932-1.744 1.944-.098.831-.114 1.694-.009 2.522.148 1.157.89 1.872 2.031 2.122 1.117.245 2.238.244 3.338-.1.612-.19 1.075-.561 1.333-1.179.529-1.265.516-2.554.145-3.841-.221-.765-.763-1.278-1.54-1.474-.392-.1-.793-.163-1.218-.234m-2.527 13.956c-1.13.876-1.498 1.346-1.803 2.238-.534 1.553.066 2.823 1.632 3.345 1.616.537 3.262.563 4.91.133.652-.17 1.24-.476 1.72-.958.83-.833.938-1.843.672-2.923-.237-.96-.947-1.429-1.847-1.636-.47-.109-.958-.18-1.44-.19-1.302-.025-2.606-.009-3.844-.009m9.384-15.614c-.442 1.043-1.203 1.7-2.294 1.985.221.5.483.946.62 1.428.31 1.079.249 2.186.099 3.285-.042.303-.114.605-.198.9-.446 1.536-1.596 2.265-3.048 2.611-1.228.293-2.475.386-3.736.252-.173-.018-.35-.002-.61-.002-.143.526-.33 1.057-.427 1.604-.156.874.24 1.459 1.098 1.642.396.084.813.101 1.22.101 1.177 0 2.356-.076 3.531-.03 1.582.063 2.883.68 3.6 2.192.171.364.29.765.356 1.163.492 3.026-.96 5.076-3.716 5.939-2.336.73-4.692.71-7.043.075-.464-.126-.921-.327-1.339-.57-1.481-.859-2.108-2.427-1.704-4.164.275-1.183.859-2.19 1.717-3.042.2-.198.407-.388.645-.613-1.494-1.618-.462-3.146.18-4.716-.06-.073-.107-.173-.186-.218-1.202-.694-1.81-1.778-2.028-3.111-.192-1.176-.218-2.36.095-3.515.442-1.634 1.477-2.712 3.116-3.192 1.638-.48 3.295-.338 4.955-.176.918.091 1.834.214 2.753.25.758.03 1.52-.046 2.344-.078M100.443 15.02c-.034.116-.072.189-.072.262.01 2.31-.006 4.619.055 6.927.027.945.21 1.89.682 2.741.586 1.056 1.44 1.642 2.69 1.517.254-.026.516-.017.763-.071 2.28-.491 3.08-1.113 3.472-2.856.548-2.438.52-4.891-.101-7.32-.31-1.205-1.164-1.862-2.35-2.023-1.794-.244-3.502.14-5.139.824m-2.396-7.543h2.284c.063 1.818-.01 3.628.039 5.498.205-.037.355-.032.475-.09 2.045-.98 4.177-1.174 6.366-.66 1.282.301 2.172 1.143 2.674 2.34.304.726.562 1.493.689 2.265.369 2.27.36 4.552-.033 6.823-.182 1.054-.652 2.002-1.22 2.884-.489.76-1.28 1.18-2.116 1.458-1.597.531-3.239.789-4.917.538-1.648-.245-2.905-1.033-3.577-2.654-.513-1.236-.71-2.521-.715-3.834-.023-4.647-.013-9.294-.012-13.941 0-.199.039-.396.063-.627M125.25 28.213h-2.282l-.17-.975c-.267.136-.486.252-.708.361-1.855.916-3.796 1.185-5.826.777-1.55-.312-2.578-1.214-2.946-2.772-.2-.846-.417-1.713-.43-2.574-.047-3.54-.02-7.081-.02-10.682.719-.153 1.472-.058 2.314-.047v.855c.001 2.618-.026 5.237.014 7.855.018 1.098.11 2.207.293 3.29.222 1.324.948 1.95 2.277 2.12 1.831.237 3.466-.384 5.125-1.192V12.323h2.36v15.89zM133.846 34.816H131.6l1.843-6.51c-.274-.129-.503-.234-.73-.342-1.273-.608-2.118-1.592-2.5-2.95-.84-2.989-1.654-5.985-2.492-8.973-.29-1.036-.625-2.06-.932-3.09-.056-.189-.077-.388-.125-.636h2.32l.23.797c.383 1.358.76 2.717 1.15 4.074.718 2.485 1.445 4.968 2.166 7.453.21.722.527 1.332 1.449 1.47.14-.359.306-.7.41-1.06.926-3.257 1.842-6.518 2.762-9.777.097-.343.208-.682.34-1.111.678.407 1.3.782 1.917 1.155.006.806-4.922 18.08-5.563 19.5M159.53 28.194h-2.233c-.015-.314-.038-.59-.039-.865-.001-2.516.032-5.035-.013-7.55-.02-1.15-.133-2.307-.31-3.444-.22-1.402-.982-2.037-2.387-2.17-1.818-.172-3.493.318-5.189 1.094v12.925c-.803.095-1.535.029-2.25.047-.202-.6-.279-11.11-.109-13.168 1.185-.793 2.364-1.604 3.566-2.377.295-.188.66-.277 1.003-.376 1.48-.427 2.983-.478 4.488-.18 1.608.316 2.65 1.3 3.042 2.89.22.893.416 1.817.434 2.729.065 3.39.051 6.78.065 10.17 0 .072-.035.144-.068.275M144.03 28.205h-2.244c-.047-4.066-.01-8.118-.022-12.202h2.266v12.202zM39.155 6.948h-.88c-3.638 0-7.274.007-10.91-.003-1.926-.005-3.813.248-5.6.969-2.13.857-3.687 2.334-4.387 4.58-.583 1.87-.633 3.787-.271 5.696.285 1.501.89 2.871 2.07 3.921.341.304.644.649 1.009 1.019-.13.237-.252.483-.396.716-.54.87-1.01 1.769-1.248 2.775-.242 1.03-.258 2.04.386 2.944.32.45.704.854 1.089 1.315-.196.184-.39.381-.598.561-.693.606-1.335 1.255-1.815 2.05-.662 1.096-1.076 2.278-.982 3.567.166 2.287 1.256 3.988 3.301 5.08 2.227 1.189 4.633 1.594 7.1 1.625 2.936.038 5.788-.538 8.541-1.54 1.425-.52 2.6-1.431 3.401-2.743 1.242-2.03 1.633-4.236 1.137-6.562-.442-2.07-1.656-3.512-3.647-4.297-1.258-.497-2.576-.618-3.894-.699-1.71-.104-3.426-.115-5.14-.163-.883-.024-2.099-.01-2.512-.698-.408-.956-.078-1.815.31-2.682.17 0 .27-.008.37.001 2.095.087 3.98.057 5.956-.298 1.578-.285 2.97-.946 4.127-2.032 1.329-1.249 1.664-2.947 1.856-4.667.176-1.579-.014-3.078-.655-4.54-.654-1.492-.295-2.072.302-2.528.665-.51 1.798-.635 2.528-.834l-.548-2.533m3.498 18.354c1.583.903 3.057 1.725 4.24 2.945.528.545.955 1.192 1.422 1.797 1.153 1.495 1.695 3.253 1.91 5.073.29 2.46.15 4.9-1.005 7.181-1.292 2.552-2.995 4.744-5.475 6.234-1.457.877-3 1.584-4.698 1.85-.503.078-1.022.07-1.533.07-3.946.005-7.89 0-11.836.003-1.71 0-3.42-.077-5.076-.518-2.774-.737-5.487-1.653-7.92-3.233-1.914-1.242-3.711-2.636-5.233-4.349-.863-.972-1.65-2-2.383-3.086-.744-1.106-1.39-2.246-1.966-3.442-.831-1.729-1.336-3.564-1.785-5.411-.554-2.279-.64-4.614-.485-6.943.155-2.345.752-4.61 1.53-6.82.782-2.219 1.914-4.244 3.3-6.147 1.535-2.108 3.343-3.939 5.442-5.455 3.108-2.246 6.52-3.814 10.345-4.424 1.267-.202 2.53-.318 3.806-.32C29.326.298 33.4.324 37.473.295c2.398-.017 4.574.685 6.541 1.995 1.889 1.256 3.405 2.879 4.552 4.875.784 1.367 1.346 2.785 1.625 4.32.094.526.123 1.069.132 1.605.036 2.113-.2 4.182-1.144 6.107-1.26 2.571-3.19 4.478-5.765 5.723-.222.108-.44.22-.761.381" transform="translate(-471 -1736) translate(457 1731) translate(21.855 16.375)"/>
                    <path d="M25.848 19.109c-1.172-.242-1.914-.992-2.156-2.211-.282-1.421-.174-2.751.84-3.876.196-.218.467-.394.736-.518 1.164-.53 2.386-.542 3.592-.223.901.24 1.567.838 1.9 1.743.333.908.378 1.826.185 2.784-.329 1.631-1.412 2.296-2.897 2.46-.228.025-.924.104-2.2-.16M24.363 33.292c2.621.08 5.185-.16 7.668.64 1.085.352 1.654 1.083 1.477 2.013-.144.758-.61 1.26-1.326 1.558-.928.385-1.89.619-2.886.704-1.49.13-2.962-.017-4.384-.484-1.658-.543-2.207-1.48-1.302-3.318.188-.385.48-.716.753-1.113M144.226 12.516c0 .78-.464 1.246-1.243 1.246-.778 0-1.243-.465-1.243-1.246 0-.781.465-1.247 1.243-1.247.779 0 1.243.466 1.243 1.247M140.77 12.123c-.55.552-1.207.552-1.757 0-.55-.55-.55-1.21 0-1.762s1.207-.552 1.758 0c.55.552.55 1.211 0 1.762M138.604 9.397c-.779 0-1.243-.466-1.243-1.246s.464-1.247 1.243-1.247c.778 0 1.243.466 1.243 1.247 0 .78-.465 1.246-1.243 1.246M138.996 5.933c-.551-.553-.551-1.212 0-1.764.55-.552 1.207-.552 1.757 0 .55.553.55 1.211 0 1.764-.55.55-1.208.55-1.757 0M141.716 3.76c0-.781.464-1.246 1.242-1.246.779 0 1.243.465 1.243 1.246 0 .78-.464 1.246-1.243 1.246-.778 0-1.242-.465-1.242-1.246M145.171 4.153c.55-.553 1.207-.553 1.758 0 .55.55.55 1.21 0 1.762s-1.208.552-1.758 0-.55-1.211 0-1.762M147.338 6.88c.778 0 1.242.465 1.242 1.245s-.464 1.247-1.242 1.247c-.779 0-1.243-.466-1.243-1.247 0-.78.464-1.246 1.243-1.246M146.946 10.343c.55.553.55 1.211 0 1.764-.55.552-1.208.552-1.757 0-.551-.553-.551-1.211 0-1.764.55-.55 1.207-.55 1.757 0" transform="translate(-471 -1736) translate(457 1731) translate(21.855 16.375)"/>
                </g>
            </g>
        </g>
    </g>
</svg>
