<svg xmlns="http://www.w3.org/2000/svg" width="193" height="70" viewBox="0 0 193 70">
    <g fill="none" fill-rule="evenodd">
        <g fill="#222">
            <g>
                <g>
                    <g>
                        <path d="M109.472 6.99c2.327 0 3.761.82 4.561 1.51l.228.199.137-.266c.363-.683 1.086-1.057 2.025-1.057h2.304l-.02 15.904c0 6.063-4.924 8.219-9.142 8.219-2.048 0-4.315-.552-6.055-1.473l-.346-.183.556-1.42.393-.97c.427-1.052 1.041-1.313 2.093-.997.805.291 2.008.613 3.33.613 2.72 0 4.223-1.279 4.223-3.593v-.482l-.383.286c-.99.747-2.234 1.113-3.811 1.113-4.617 0-7.842-3.605-7.842-8.766 0-5.165 3.118-8.637 7.749-8.637zm27.21.095c2.555 0 6.357 1.083 6.357 4.065v2.26l-2.592-.004c-.217 0-1.32-.064-1.685-1.277l-.022-.089c-.16-.535-1.17-.854-2.058-.854-2.738 0-4.65 2.016-4.65 4.896 0 3.337 2.465 4.834 4.909 4.834 2.517 0 4.463-1.891 4.702-2.135l.024-.025.27-.287 2.053 3.397-.136.168c-.024.029-2.577 3.11-7.273 3.11-5.412 0-9.335-3.794-9.335-9.027 0-5.23 3.965-9.032 9.436-9.032zM27.865 7.068c5.273 0 9.1 3.777 9.1 8.98 0 5.202-3.827 8.98-9.1 8.98-5.254 0-9.066-3.778-9.066-8.98 0-5.203 3.812-8.98 9.066-8.98zm19.453 0c5.267 0 9.102 3.777 9.102 8.98 0 5.202-3.835 8.98-9.102 8.98-5.259 0-9.071-3.778-9.071-8.98 0-5.203 3.812-8.98 9.07-8.98zm106.16 0c5.266 0 9.1 3.777 9.1 8.98 0 5.202-3.834 8.98-9.1 8.98-5.258 0-9.07-3.778-9.07-8.98 0-5.203 3.812-8.98 9.07-8.98zm-29.93 12.12c1.592 0 2.886 1.292 2.886 2.887 0 1.592-1.294 2.885-2.887 2.885-1.587 0-2.877-1.293-2.877-2.885 0-1.595 1.29-2.888 2.877-2.888zM78.126 7.422c1.756 0 2.606.86 2.606 2.632l-.01 14.698h-.01v.006h-1.16l-1.167.004c-.031 0-.058-.004-.09-.004H75.79v-3.93h.002l-.014-13.406h2.349zM60.543.753c1.37 0 2.64.277 2.64 2.312v10.172h.795c.596 0 .994-.147 1.19-.435l3.484-5.38h5.628L69.643 14.3c-.237.349-.484.65-.724.903l-.168.16.16.168c.248.258.483.584.687.967l1.888 3.566 2.845 4.7h-3.823c-1.44 0-2.204-.242-2.974-1.647l-2.75-5.183c-.178-.307-.565-.373-1.133-.373h-.468v7.202h-4.985L58.192.754h2.35zm33.263 6.275c4.054 0 6.196 2.317 6.196 6.7l.008 11.029h-2.358c-1.8 0-2.633-.842-2.633-2.637v-7.552c0-2.105-.603-2.92-2.15-2.92-1.921 0-3.46 1.164-4.01 3.037-.208.618-.309 1.296-.309 2.079v7.993h-4.952l-.014-17.342h2.234c1.352 0 2.25.561 2.515 1.58l.108.414.303-.304c.906-.95 2.525-2.077 5.062-2.077zm90.895.056l.232.004c3.671.09 5.536 2.324 5.536 6.639l-.005 11.025h-2.226c-1.748 0-2.526-.778-2.526-2.524v-7.714c0-2.211-.54-3.035-1.995-3.035-2.013 0-3.31 1.803-3.692 3.564-.187.624-.266 1.25-.266 2.085v7.624h-4.764V14.514c0-1.918-.628-2.91-1.913-3.032-2.086-.198-3.329 1.783-3.78 3.626-.166.691-.25 1.354-.25 2.02v7.624h-4.729l.02-17.272h2.081c1.298 0 2.156.528 2.416 1.49l.182.667.469-.508c.718-.76 2.26-2.044 4.563-2.044 2.196 0 3.774.848 4.691 2.517l.281.508.359-.454c1.275-1.61 3.263-2.57 5.318-2.57l-.002-.002zM3.804.763h5.18c4.54 0 7.472 2.437 7.472 6.21 0 2.466-1.24 3.893-1.98 4.528l-.636.543.729.41c1.769.993 2.82 2.947 2.82 5.235 0 4.244-3.255 6.986-8.302 6.986l-5.923.001-.01-.001H.777V3.255C.79 1.904 1.869.81 3.215.763h.589zM27.865 11.27c-2.484 0-4.208 1.967-4.208 4.779 0 2.81 1.724 4.78 4.208 4.78 2.533 0 4.242-1.924 4.242-4.78 0-2.812-1.744-4.78-4.242-4.78zm19.453 0c-2.483 0-4.211 1.967-4.211 4.779 0 2.81 1.728 4.78 4.21 4.78 2.534 0 4.243-1.924 4.243-4.78 0-2.812-1.75-4.78-4.242-4.78zm106.16 0c-2.483 0-4.213 1.967-4.213 4.779 0 2.81 1.73 4.78 4.212 4.78 2.533 0 4.245-1.924 4.245-4.78 0-2.812-1.752-4.78-4.245-4.78zM9.418 14.128H6.671c-.883.124-1.283.657-1.283 1.686v4.811l4.031.005c1.995-.001 3.232-1.217 3.232-3.267 0-2-1.27-3.235-3.232-3.235zm100.764-2.778c-3.163 0-3.41 3.175-3.41 4.148 0 2.208.964 4.566 3.67 4.566 1.555 0 3.409-.763 3.409-4.403 0-3.859-2.095-4.31-3.669-4.31zM8.952 4.683H6.889c-1.03.068-1.501.594-1.501 1.703v4.043h3.628c2.039 0 2.765-1.573 2.765-2.921 0-1.767-1.06-2.825-2.83-2.825zM78.06.001c1.593 0 2.888 1.29 2.888 2.886 0 1.592-1.295 2.883-2.888 2.883-1.589 0-2.878-1.291-2.878-2.883 0-1.595 1.29-2.886 2.878-2.886z" transform="translate(-162 -2765) translate(148 2440) translate(0 320) translate(14.877 25.125)"/>
                    </g>
                </g>
            </g>
        </g>
    </g>
</svg>
