<svg xmlns="http://www.w3.org/2000/svg" xmlns:xlink="http://www.w3.org/1999/xlink" width="192" height="70" viewBox="0 0 192 70">
    <defs>
        <path id="0e6z4rtgka" d="M0 70L192 70 192 0 0 0z"/>
    </defs>
    <g fill="none" fill-rule="evenodd">
        <g>
            <g>
                <g>
                    <g>
                        <path fill="#222" d="M17.747 27.698L17.747 21.481 39.607 21.481 45.576 38.112 51.621 21.481 58.288 21.481 48.599 48.293 42.63 48.293 35.111 27.698 29.452 27.698 29.452 48.293 23.019 48.293 23.019 27.698z" transform="translate(-461 -3021) translate(148 2440) translate(299 576) translate(14 5)"/>
                        <g transform="translate(-461 -3021) translate(148 2440) translate(299 576) translate(14 5)">
                            <path fill="#222" d="M6.972 33.76v-6.916c7.21-.467 7.055 7.304 0 6.916zm5.815 14.533h7.364l-6.202-10.724c7.674-2.643 5.581-16.244-2.945-16.088H.228v26.812h6.744v-9.947l5.815 9.947zM134.564 21.48h7.597l7.209 26.813h-5.35l-1.24-4.74h-8.99l-1.242 4.74h-5.193l7.21-26.812zm6.899 17.176h-6.356l3.178-11.89 3.178 11.89z"/>
                            <path fill="#222" d="M159.292 38.967v-5.75h11.86v9.325c-1.86 2.41-3.1 4.275-5.582 5.441-1.627.776-4.263 1.398-6.666 1.398-2.945 0-5.349-.544-7.21-1.631-1.859-1.167-3.021-2.643-4.03-4.82-1.007-2.253-1.24-4.818-1.24-7.694 0-3.03.388-5.75 1.55-7.926 1.085-2.254 2.714-3.886 4.884-5.053 1.705-.932 3.488-1.32 6.356-1.32 2.79 0 4.806.233 6.202.777 1.395.543 2.48 1.399 3.41 2.565.853 1.166 1.55 2.642 2.016 4.43l-6.512 1.476c-.31-1.088-.775-1.865-1.55-2.41-.698-.542-1.628-.931-2.713-1.087-2.247-.311-4.03.932-5.038 2.176-1.008 1.32-1.474 3.341-1.474 6.218 0 2.953.466 5.517 1.474 6.838 1.008 1.245 2.48 1.944 4.263 1.944.853 0 1.705-.156 2.48-.468.775-.231 1.629-.698 2.636-1.398v-3.03h-5.116zM180.687 27.543h-3.489v14.766h3.489c6.51 0 6.665-14.766 0-14.766m-1.008-6.062h-8.527v26.89h8.527c15.969 0 16.279-26.89 0-26.89"/>
                            <mask id="cha4krxlab" fill="#fff">
                                <use xlink:href="#0e6z4rtgka"/>
                            </mask>
                            <path fill="#FFF" d="M52.397 48.294L131.076 48.294 131.076 21.481 52.397 21.481z" mask="url(#cha4krxlab)"/>
                            <path fill="#222" d="M51.622 48.293h80.229V21.48H51.62v26.813zm1.55-1.4h77.206V22.958H53.173v23.937z" mask="url(#cha4krxlab)"/>
                            <path fill="#222" d="M70.846 41.766L57.358 41.766 57.358 27.931 70.459 27.931 70.459 30.651 61.002 30.651 61.002 33.449 69.76 33.449 69.76 35.392 61.002 35.392 61.002 39.434 70.846 39.434zM107.433 41.766h-4.109l-.076-3.731c0-1.943-2.403-1.866-3.954-1.866h-2.558v5.597h-4.263V27.93h9.612c6.279 0 7.752 5.13 3.1 6.996 1.163.387 2.17 1.554 2.17 3.03l.078 3.809zM96.581 34.07h4.031c1.086 0 1.938-.156 2.404-.389.464-.31.774-.777.774-1.399 0-1.165-1.008-1.787-2.945-1.787h-4.264v3.575zM118.518 27.698c1.24 0 2.403.156 3.411.544 1.085.312 2.015.777 2.79 1.4.776.62 1.319 1.398 1.783 2.253.388.932.62 1.865.62 2.954 0 1.01-.154 2.02-.62 2.875-.387.856-1.007 1.632-1.783 2.254-.775.621-1.705 1.165-2.712 1.477-1.086.31-2.248.543-3.489.543-1.24 0-2.48-.232-3.488-.543-1.085-.312-2.015-.856-2.712-1.477-.776-.622-1.397-1.322-1.783-2.254-.466-.855-.699-1.788-.699-2.875 0-1.089.233-2.1.699-2.954.386-.855 1.007-1.632 1.783-2.253.775-.623 1.705-1.088 2.712-1.4 1.086-.388 2.248-.544 3.488-.544m0 11.813c.698 0 1.396-.077 2.093-.31.62-.234 1.163-.545 1.628-.933.465-.388.775-.855 1.085-1.476.233-.544.388-1.244.388-1.943 0-.778-.155-1.4-.388-2.022-.31-.544-.62-1.01-1.085-1.398-.465-.39-1.008-.7-1.628-.933-.697-.233-1.318-.311-2.093-.311-.698 0-1.395.078-2.092.31-.62.234-1.163.545-1.628.934-.465.388-.853.854-1.086 1.476-.232.544-.387 1.166-.387 1.944 0 .699.155 1.399.387 1.943.233.621.62 1.088 1.086 1.476.465.388 1.007.7 1.628.933.62.233 1.317.31 2.092.31M74.8 27.931h3.488v9.793c.154 2.72 6.976 2.642 6.82 0V27.93h3.799l-.078 10.026c.078 5.13-13.953 5.13-14.03 0V27.931zM125.96 27.854c-1.086 0-1.938-.855-1.938-1.944 0-1.087.852-1.942 1.938-1.942 1.086 0 1.938.855 1.938 1.942 0 1.089-.852 1.944-1.938 1.944zm0-.311c.93 0 1.628-.777 1.628-1.633 0-.932-.698-1.71-1.628-1.71-.93 0-1.628.778-1.628 1.71 0 .856.698 1.633 1.628 1.633zm-.31-1.866h.698c0-.077.077-.077.077-.077.078-.077.078-.155.078-.155 0-.078 0-.156-.078-.234 0 0-.077-.077-.155-.077h-.62v.543zm-.465 1.245v-2.1h1.395l.233.234c.077.078.077.233.077.31 0 .157 0 .311-.077.39-.156.076-.233.154-.465.232.077 0 .155.078.232.156.077.078.155.156.233.31l.31.468h-.543l-.31-.468c-.077-.154-.155-.31-.232-.31 0-.078-.078-.078-.078-.078-.078-.078-.155-.078-.233-.078h-.077v.934h-.465z" mask="url(#cha4krxlab)"/>
                        </g>
                    </g>
                </g>
            </g>
        </g>
    </g>
</svg>
