<svg xmlns="http://www.w3.org/2000/svg" width="192" height="70" viewBox="0 0 192 70">
    <g fill="none" fill-rule="evenodd">
        <g>
            <g>
                <g>
                    <g>
                        <path fill="#222" d="M0.084 69.916L69.734 69.916 69.734 0.084 0.084 0.084z" transform="translate(-461 -2888) translate(148 2440) translate(299 443) translate(75.09 5)"/>
                        <g>
                            <path fill="#FFF" d="M31.42.527C14.361.527.525 14.4.525 31.51c0 17.092 13.836 30.966 30.893 30.966 17.056 0 30.893-13.874 30.893-30.966C62.312 14.4 48.475.527 31.419.527" transform="translate(-461 -2888) translate(148 2440) translate(299 443) translate(75.09 5) translate(3.49 3.5)"/>
                            <path fill="#222" d="M29.499 32.369L24.05 26.907 17.759 33.219 17.759 35.339 19.343 33.743 23.73 38.152 22.112 39.776 23.165 40.842 31.941 32.023 31.941 29.914zM4.037 25.753L13.752 25.753 13.752 27.855 12.132 27.855 12.132 34.65 17.759 31.51 17.759 37.266 4.037 37.266 4.037 35.155 5.666 35.155 5.666 27.855 4.037 27.855zM44.999 25.753L44.999 27.855 46.626 27.855 46.626 35.155 44.999 35.155 44.999 37.266 58.729 37.266 58.729 31.51 53.092 34.65 53.092 27.855 54.721 27.855 54.721 25.753zM23.244 19.208c1.91 0 3.46 1.544 3.46 3.458 0 1.916-1.55 3.47-3.46 3.47s-3.459-1.554-3.459-3.47c0-1.915 1.55-3.458 3.46-3.458" transform="translate(-461 -2888) translate(148 2440) translate(299 443) translate(75.09 5) translate(3.49 3.5)"/>
                            <path fill="#222" d="M39.584 25.753h-9.262v2.102h1.62v7.3h-1.62v2.11h9.262c6.848 0 6.918-11.512 0-11.512" transform="translate(-461 -2888) translate(148 2440) translate(299 443) translate(75.09 5) translate(3.49 3.5)"/>
                            <path fill="#FFF" d="M38.283 33.673h-.46v-4.345h.39c2.026 0 2.026 4.355.07 4.345" transform="translate(-461 -2888) translate(148 2440) translate(299 443) translate(75.09 5) translate(3.49 3.5)"/>
                        </g>
                    </g>
                </g>
            </g>
        </g>
    </g>
</svg>
