<svg xmlns="http://www.w3.org/2000/svg" width="193" height="70" viewBox="0 0 193 70">
    <g fill="none" fill-rule="evenodd">
        <g fill="#222">
            <g>
                <g>
                    <g>
                        <path d="M162.221 8.958c-.093-.112-.234-.179-.383-.179h-2.596c-.236 0-.443.165-.49.396l-.202.98c-.576-.516-1.151-.846-1.975-1.165l-.258-.113c-.032-.011-.063-.024-.096-.03-2.818-.617-5.651.23-7.97 2.384-1.158 1.063-2.036 2.295-2.618 3.621l3.41-13.816c.03-.11.004-.23-.067-.32-.07-.09-.18-.143-.295-.143h-3.16c-.11 0-.21.045-.281.127L131.49 16.182c.482-2.32 3.184-15.159 3.184-15.159 0-.025.007-.053.007-.077 0-.083-.027-.169-.084-.235-.07-.087-.179-.138-.29-.138h-3.49c-.111 0-.215.048-.285.127l-17.438 20.09c-.293-2.925-1.687-6.11-1.687-6.11-2.337-4.777-7.537-6.324-10.486-3.585l-.02.005-.463.335c2.139-3.406 7.567-3.254 11.06.756 0 0 1.553 1.862 2.654 4.632.294-.978.474-1.992.529-3.028-1.82-2.455-3.87-3.897-3.87-3.897-4.414-2.97-9.697-1.716-10.878 2.127l-.016.016-.228.52c.144-4.02 4.918-6.592 9.952-4.863 0 0 2.37.868 4.762 2.79-.032-.153-.065-.306-.107-.46-.258-1.015-.634-1.978-1.117-2.875-2.79-1.205-5.264-1.429-5.264-1.429-5.313-.368-9.257 3.348-8.353 7.266l-.007.021.06.567c-1.888-3.554.956-8.16 6.18-9.177 0 0 2.427-.42 5.41.023-.756-.797-1.62-1.495-2.578-2.085-2.991.35-5.223 1.383-5.223 1.383-4.783 2.328-6.337 7.517-3.59 10.462l.003.017.337.463c-3.415-2.136-3.26-7.547.756-11.033 0 0 1.877-1.56 4.67-2.666-1.152-.344-2.347-.52-3.551-.527-2.335 1.772-3.697 3.697-3.697 3.697-2.977 4.405-1.72 9.673 2.131 10.853l.015.012.523.233c-4.027-.144-6.606-4.908-4.874-9.93 0 0 .798-2.166 2.558-4.443-1.008.261-1.961.642-2.855 1.12-1.137 2.705-1.35 5.06-1.35 5.06-.37 5.3 3.358 9.235 7.286 8.336l.018.005.57-.063c-3.562 1.886-8.183-.952-9.197-6.167 0 0-.407-2.33 0-5.233-.849.802-1.592 1.723-2.207 2.752.381 2.86 1.355 4.962 1.355 4.962 2.335 4.775 7.535 6.324 10.484 3.583l.022-.004.462-.334c-2.138 3.405-7.567 3.253-11.058-.757 0 0-1.79-2.231-2.726-4.83.002-.122-.035-.239-.112-.332-.096-.112-.236-.179-.388-.179h-2.593c-.238 0-.443.165-.493.396 0 0-.199.302-.29.896-.576-.514-1.259-.812-1.882-1.081l-.264-.113c-.03-.011-.063-.024-.093-.03-2.818-.617-5.65.23-7.97 2.384-1.371 1.259-2.355 2.752-2.914 4.365l-.048.106 1.103-6.34c.024-.143-.016-.293-.112-.406-.097-.112-.238-.178-.384-.177l-2.768.004c-.242.001-.45.173-.493.413l-2.86 15.556c-.025.146.016.297.11.412.095.111.237.176.385.176l2.917.007c.246 0 .455-.176.495-.416l1.102-6.33c.012.04.022.066.022.066-.01.629.042 1.267.16 1.904.429 2.379 2.543 4.598 4.822 5.05 1.988.359 4.114-.144 6.212-1.436-.041.226-.107.567-.107.567-.006.03-.008.06-.008.092 0 .116.04.23.115.32.094.113.236.176.388.176l2.574.007c.242 0 .45-.17.494-.408l2.266-12.243c1.695 2.008 3.912 3.723 3.912 3.723 4.413 2.972 9.694 1.717 10.875-2.124l.018-.017.229-.522c-.144 4.019-4.92 6.595-9.954 4.863 0 0-2.171-.796-4.458-2.552.019.083.036.169.057.254.272 1.051.665 2.049 1.174 2.975 2.66 1.093 4.955 1.3 4.955 1.3 5.31.37 9.255-3.349 8.353-7.268l.007-.02-.063-.569c1.89 3.554-.955 8.167-6.182 9.177 0 0-2.283.4-5.147.013.686.72 1.458 1.366 2.311 1.92 2.968-.359 5.166-1.379 5.166-1.379 4.785-2.327 6.341-7.517 3.594-10.459l-.006-.022-.336-.46c3.416 2.135 3.263 7.546-.754 11.033 0 0-1.916 1.587-4.748 2.695.78.263 1.584.449 2.397.556h1.158c2.379-1.79 3.767-3.756 3.767-3.756 2.98-4.405 1.724-9.675-2.13-10.852l-.015-.016-.521-.23c4.028.145 6.608 4.908 4.875 9.932 0 0-.866 2.35-2.785 4.733.154-.034.302-.066.455-.106.974-.246 1.89-.607 2.741-1.045 1.19-2.763 1.41-5.205 1.41-5.205.373-5.296-3.356-9.234-7.287-8.333l-.016-.004-.569.06c3.56-1.884 8.184.954 9.2 6.169 0 0 .586 2.394.147 5.23-.084.41-.256 1.003-.588 1.637-.1.176-.225.384-.377.626l.004-.007c-.002.007-.008.012-.012.02-.004.007-.004.008-.004.014-.06.101-.072.228-.02.34.058.134.192.219.341.216h1.619c.852-.004 1.583-.009 2.556.025.116.002.227-.048.301-.133l14.08-16.794c-.594 3.064-2.279 10.942-3.485 16.473-.003.027-.006.054-.006.08 0 .085.028.168.08.234.073.09.18.14.298.14l2.848-.025c.108 0 .211-.046.281-.13 0 0 12.629-14.737 14.245-16.62-.673 3.076-2.517 10.846-3.831 16.313-.01.03-.014.056-.014.087 0 .081.028.164.082.231.072.091.179.144.296.144h3.368c.172 0 .325-.117.366-.287l1.458-5.901.203-.83c.007.237.01.424.01.424-.007.629.045 1.267.163 1.904.425 2.379 2.544 4.598 4.819 5.05 1.987.359 4.116-.144 6.213-1.436l-.107.567c-.005.03-.009.06-.009.092 0 .116.04.23.114.32.098.113.24.176.386.176l2.576.007c.245 0 .451-.17.495-.408l2.326-12.327.557-3.322c.002-.122-.036-.239-.117-.332M.493 25.021v-.31c.016-.032.035-.063.06-.09L21.357.7c.072-.08.174-.128.285-.128H25c.11 0 .216.051.29.138.053.066.084.154.084.235 0 .024-.005.052-.01.077 0 0-2.605 12.838-3.09 15.16C23.917 14.332 36.026.7 36.026.7c.07-.082.174-.127.278-.127h3.162c.116 0 .226.053.297.143.07.09.096.21.066.32l-3.318 13.44c.028-.05.051-.099.077-.145 1.579-3.064 4.58-5.218 7.827-5.614.01-.003.023-.003.036-.003 2.937-.148 5.204.96 6.563 3.2l.022.036c.488.978.852 2.293.917 3.646.555-1.613 1.54-3.106 2.91-4.365 2.32-2.154 5.15-3.001 7.971-2.384.029.006.064.019.093.03l.262.113c.626.269 1.307.567 1.883 1.081.305-1.431 1.2-5.678 1.2-5.678.05-.23.254-.396.49-.396h2.595c.15 0 .29.067.386.178.095.114.135.266.11.412l-3.785 20.352c-.045.238-.251.408-.493.408L63 25.34c-.15 0-.294-.063-.389-.176-.075-.09-.116-.204-.116-.32 0-.031.004-.063.01-.092 0 0 .065-.341.106-.567-2.098 1.292-4.221 1.795-6.211 1.435-2.277-.451-4.394-2.67-4.822-5.049-.116-.637-.168-1.275-.162-1.904-.09.08-.209.13-.336.13l-11.95.005c-.011.05-.02.093-.02.145 0 .182.064.42.146.69l.051.175c.567 1.39 1.928 2.262 3.472 2.225 1.535-.035 2.957-.768 4.221-2.177.093-.107.23-.167.371-.167h2.664c.172 0 .334.088.423.234.093.145.105.327.033.482-1.513 3.172-4.904 5.302-8.463 5.302-2.477-.096-4.555-1.298-5.712-3.308-.576-1.071-.849-2.4-.833-3.762l-1.563 6.333c-.042.17-.195.287-.367.287h-3.37c-.114 0-.223-.053-.292-.144-.056-.067-.084-.15-.084-.23 0-.032.005-.059.01-.088 1.317-5.467 3.162-13.237 3.832-16.312l-14.243 16.62c-.07.083-.172.129-.281.129l-2.847.025c-.115 0-.221-.05-.294-.14-.054-.066-.084-.15-.084-.235 0-.025 0-.052.007-.079 1.205-5.531 2.89-13.41 3.483-16.473L5.31 25.128c-.073.085-.184.135-.3.133-.972-.034-1.704-.03-2.556-.025H.833c-.145.003-.278-.082-.34-.215m157.097-7.564c-.583 2.032-2.51 3.967-4.395 4.423-1.442.19-2.498.055-3.23-.42-.777-.532-1.167-1.455-1.468-2.287-.05-.298-.08-.598-.08-.891 0-1.851.994-3.635 2.822-5.002 1.047-.732 2.476-1.01 3.726-.724.705.163 1.673.581 2.275 1.67.335.591.516 1.34.516 2.07 0 .404-.056.8-.166 1.161M40.254 15.122l7.743-.073c-.06-.553-.352-1.07-.964-1.682-.675-.577-1.6-.848-2.915-.855-1.424.198-3.087 1.132-3.864 2.61m23.95 2.335c.11-.361.163-.757.163-1.16 0-.731-.178-1.48-.514-2.07-.607-1.09-1.57-1.508-2.278-1.67-1.248-.287-2.677-.01-3.728.723-1.823 1.367-2.818 3.15-2.818 5.002 0 .293.028.593.08.891.301.832.69 1.755 1.466 2.287.736.475 1.794.61 3.231.42 1.884-.456 3.811-2.391 4.398-4.423m6.308-13.064l-.605 3.272c-.028.146.013.299.108.417.095.112.236.178.388.178h2.92c.24 0 .45-.17.493-.41l.549-3.243c.023-.145-.016-.297-.109-.41-.095-.113-.236-.18-.38-.181l-2.871-.025c-.24-.002-.447.169-.493.402m14.233 13.064c-.585 2.032-2.514 3.967-4.396 4.423-1.44.19-2.496.055-3.232-.42-.776-.532-1.164-1.455-1.465-2.287-.052-.298-.08-.598-.08-.891 0-1.851.993-3.635 2.82-5.002 1.05-.732 2.475-1.01 3.727-.724.706.163 1.671.581 2.275 1.67.337.591.517 1.34.517 2.07 0 .404-.057.8-.166 1.161m95.976 6.441l-4.81-7.704c.39-.459 4.483-5.434 5.314-6.409l-.368 1.929c-.028.147.013.298.109.411.094.113.234.181.385.181h1.275c-.145.88-1.479 8.987-1.905 11.592M166.719 9.73l.057-.36c.029-.145-.013-.296-.105-.41-.097-.113-.236-.18-.384-.18h-2.598c-.24-.003-.45.166-.496.404l-.073.392-2.776 15.134c-.024.146.02.299.118.412.098.112.247.179.397.175l1.282-.019h1.205c.24 0 .44-.167.487-.398l1.905-9.392c.629-2.38 2.21-3.089 3.608-3.295.075-.01.357-.006.417-.044-.958 5.694-2.092 12.436-2.113 12.55-.024.142.018.29.113.403.094.111.236.176.379.176h2.797c.219 0 .414-.14.476-.35.09-.274.759-4.144 1.16-6.469 1.036 1.567 4.345 6.59 4.345 6.59.093.14.25.224.417.224l3.344.005c.061 0 .116-.014.173-.032.071.032.15.054.228.051l2.823-.019c.244-.002.449-.176.489-.41l2.18-12.556 3.24-.005c.243 0 .45-.175.493-.413l.436-2.534c.006-.028.009-.054.009-.085 0-.114-.042-.228-.116-.318-.095-.112-.234-.177-.385-.177h-3.193c.156-.896.724-4.2.724-4.2.004-.028.007-.056.007-.084 0-.119-.04-.233-.117-.321-.093-.115-.236-.177-.381-.177h-2.807c-.242 0-.45.174-.492.412 0 0-.624 3.693-.74 4.37-.254.008-.515.013-.515.013l-.438.003-.465-.008c-.178-.004-.337.087-.43.23-.09-.136-.242-.225-.412-.225l-2.569-.005h-.751c-.14 0-.272.059-.369.16 0 0-2.584 2.954-3.956 4.437.401-2.35 1.508-8.797 1.508-8.797.004-.03.007-.057.007-.087 0-.116-.043-.23-.12-.318-.093-.115-.233-.179-.38-.179l-2.795-.006c-.246-.002-.457.173-.496.411-.065.385-.355 2.1-.744 4.387l-.013-.02c-.098-.115-.241-.175-.393-.17-1.19.035-2.265.521-3.202 1.124" transform="translate(-783 -2888) translate(148 2440) translate(621 443) translate(14.877 26.875)"/>
                    </g>
                </g>
            </g>
        </g>
    </g>
</svg>
