<svg xmlns="http://www.w3.org/2000/svg" width="193" height="70" viewBox="0 0 193 70">
    <g fill="none" fill-rule="evenodd">
        <g fill="#222">
            <g>
                <g>
                    <path d="M91.73 29.191c6.202 0 10.334-4.009 10.334-10.774V1.11H95.28v17.035c0 3.15-1.135 4.71-3.514 4.71-2.296 0-3.279-1.597-3.279-4.71V1.11h-6.82v17.307c.009 6.915 3.785 10.774 10.061 10.774M112.135 13.866h-1.246v-6.57h1.79c3.007 0 4.45.935 4.45 3.225-.01 2.486-1.64 3.345-4.994 3.345m8.104-11.242c-1.874-1.318-4.094-1.514-7.017-1.514h-9.2v27.651h6.782v-8.905h1.95c2.885 0 5.068-.197 6.83-1.243 2.763-1.672 4.403-4.625 4.403-8.205 0-3.467-1.283-6.074-3.748-7.784M161.5 13.361L171.834 28.762 177.793 28.762 177.793 1.11 171.02 1.11 171.02 16.473 160.835 1.11 154.717 1.11 154.717 28.762 161.5 28.762zM65.684 22.425c-3.823 0-7.29-3.345-7.29-7.7 0-4.046 3.233-7.269 7.374-7.269 3.898 0 7.14 3.223 7.14 7.27-.01 4.504-3.242 7.7-7.224 7.7m9.94-17.737C72.935 2.045 69.431.606 65.721.606c-3.935 0-7.373 1.364-10.1 4.046-2.726 2.681-4.216 6.186-4.216 9.998 0 4.084 1.331 7.504 3.936 10.271 2.725 2.878 6.239 4.354 10.333 4.354 3.86 0 7.524-1.513 10.212-4.316 2.615-2.683 4.02-6.225 4.02-10.186.01-3.786-1.471-7.327-4.282-10.084M139.155 22.425c-3.822 0-7.289-3.345-7.289-7.7 0-4.046 3.242-7.269 7.373-7.269 3.898 0 7.14 3.223 7.14 7.27-.01 4.504-3.251 7.7-7.224 7.7m9.94-17.737c-2.688-2.644-6.202-4.083-9.902-4.083-3.945 0-7.373 1.364-10.1 4.046-2.727 2.681-4.216 6.186-4.216 9.998 0 4.084 1.33 7.504 3.934 10.271 2.737 2.878 6.24 4.354 10.335 4.354 3.86 0 7.523-1.513 10.212-4.316 2.614-2.683 4.02-6.225 4.02-10.186.01-3.786-1.472-7.327-4.282-10.084M4.195 24.911c2.726 2.878 6.203 4.393 10.297 4.393 4.721 0 9.163-2.337 11.814-6.187 1.602-2.337 2.38-4.981 2.38-8.092 0-.58-.038-1.206-.075-1.833H12.815v5.523h7.917c-1.369 2.412-3.664 3.738-6.24 3.738-3.823 0-7.252-3.382-7.252-7.784 0-3.971 3.195-7.27 7.252-7.27 2.183 0 3.972.898 5.696 2.683h7.72C25.688 4.166 20.498.549 14.576.549c-3.935 0-7.365 1.402-10.1 4.084C1.75 7.316.27 10.82.27 14.632c-.01 4.093 1.311 7.513 3.925 10.28M38.505 13.866h-1.322v-6.57h1.874c2.998 0 4.441.935 4.441 3.225 0 2.486-1.64 3.345-4.993 3.345zm5.574 5.401c3.935-1.093 6.278-4.43 6.278-8.905 0-3.42-1.285-6.028-3.748-7.738-1.874-1.318-4.094-1.514-7.018-1.514h-9.2v27.651h6.783v-8.905l5.303 8.905h8.385l-6.783-9.494zM180.604 1.25c.356-.354.777-.532 1.274-.532.496 0 .927.178 1.274.532.347.347.525.776.525 1.27 0 .497-.178.927-.525 1.282-.347.354-.768.532-1.274.532-.497 0-.928-.178-1.274-.532-.348-.355-.525-.776-.525-1.281 0-.495.169-.915.525-1.27m1.264 3.364c.582 0 1.078-.206 1.48-.617.413-.411.61-.907.61-1.477 0-.58-.206-1.065-.61-1.468-.402-.401-.898-.606-1.48-.606-.571 0-1.068.205-1.47.606-.413.413-.61.898-.61 1.468 0 .579.207 1.075.61 1.477.402.41.89.617 1.47.617" transform="translate(-471 -1458) translate(457 1453) translate(18.386 25.125)"/>
                    <path d="M182.187 2.418c-.084.038-.216.048-.384.048h-.365v-.832h.346c.225 0 .385.028.487.084.103.056.15.168.15.336 0 .187-.084.31-.234.364zm.609 1.206c-.009-.02-.019-.057-.019-.121 0-.056-.01-.121-.01-.168v-.17c0-.11-.036-.232-.121-.355-.084-.12-.215-.195-.393-.224.14-.018.253-.056.328-.112.15-.093.225-.252.225-.448 0-.29-.122-.486-.357-.579-.131-.057-.336-.085-.628-.085h-.805v2.29h.403v-.897h.318c.216 0 .366.028.45.075.15.084.216.262.216.523v.178l.009.074v.029c0 .009 0 .018.01.018h.374v-.028z" transform="translate(-471 -1458) translate(457 1453) translate(18.386 25.125)"/>
                </g>
            </g>
        </g>
    </g>
</svg>
